<?xml version="1.0" encoding="UTF-8" standalone="no"?>
<!-- Created with Inkscape (http://www.inkscape.org/) -->

<svg
   version="1.1"
   id="svg2"
   xml:space="preserve"
   width="732.09668"
   height="518.46545"
   viewBox="0 0 732.09668 518.46545"
   sodipodi:docname="pipeline.pdf"
   xmlns:inkscape="http://www.inkscape.org/namespaces/inkscape"
   xmlns:sodipodi="http://sodipodi.sourceforge.net/DTD/sodipodi-0.dtd"
   xmlns="http://www.w3.org/2000/svg"
   xmlns:svg="http://www.w3.org/2000/svg"><defs
     id="defs6"><clipPath
       clipPathUnits="userSpaceOnUse"
       id="clipPath18"><path
         d="M 0,1.206994e-5 H 959.76 V 540.00001 H 0 Z"
         id="path16" /></clipPath></defs><sodipodi:namedview
     id="namedview4"
     pagecolor="#ffffff"
     bordercolor="#666666"
     borderopacity="1.0"
     inkscape:pageshadow="2"
     inkscape:pageopacity="0.0"
     inkscape:pagecheckerboard="0" /><g
     id="g8"
     inkscape:groupmode="layer"
     inkscape:label="pipeline"
     transform="matrix(1.3333333,0,0,-1.3333333,-212.80307,706.9472)"><g
       id="g10" /><g
       id="g12"><g
         id="g14"
         clip-path="url(#clipPath18)"><path
           d="M 0,540 H 959.76 V 1.206994e-5 H 0 Z"
           style="fill:#ffffff;fill-opacity:1;fill-rule:nonzero;stroke:none"
           id="path20" /></g></g><g
       id="g22"><path
         d="M 0,540 H 960 V 1.40816e-5 H 0 Z"
         style="fill:#ffffff;fill-opacity:1;fill-rule:nonzero;stroke:none"
         id="path24" /><path
         d="m 161.8909,510.8672 c 0,9.3418 7.573,16.9148 16.9148,16.9148 h 199.0381 c 9.3418,0 16.9148,-7.573 16.9148,-16.9148 v -67.6564 c 0,-9.3417 -7.573,-16.9147 -16.9148,-16.9147 H 178.8057 c -9.3418,0 -16.9148,7.573 -16.9148,16.9147 z"
         style="fill:#e2f0d9;fill-opacity:1;fill-rule:nonzero;stroke:none"
         id="path26" /><g
         id="g28"
         transform="matrix(7.874016e-5,0,0,-7.874016e-5,161.8909,527.782)"><path
           d="M 0,214817.2 C 0,96176.95 96176.92,0 214817.2,0 H 2742602 c 118640,0 214817,96176.95 214817,214817.2 V 1074054 c 0,118640 -96177,214817 -214817,214817 H 214817.2 C 96176.92,1288871 0,1192694 0,1074054 Z"
           style="fill:none;stroke:#548235;stroke-width:12700;stroke-linecap:butt;stroke-linejoin:miter;stroke-miterlimit:8;stroke-dasharray:none;stroke-opacity:1"
           id="path30" /></g><g
         id="g32"
         transform="matrix(0.24,0,0,0.24,241.9439,-34.07999)"><text
           transform="matrix(1,0,0,-1,0,2250)"
           style="font-variant:normal;font-weight:normal;font-size:75px;font-family:Calibri;-inkscape-font-specification:Calibri;writing-mode:lr-tb;fill:#548235;fill-opacity:1;fill-rule:nonzero;stroke:none"
           id="text36"><tspan
             x="0 18.75 58.349998 97.949997 137.55 162.52499 179.7 202.64999 219.825 237 274.5"
             y="0"
             sodipodi:role="line"
             id="tspan34">Input files</tspan></text></g><path
         d="m 550.1357,343.7747 c 0,14.4338 11.7009,26.1348 26.1347,26.1348 h 104.5358 c 14.4338,0 26.1347,-11.701 26.1347,-26.1348 V 169.752 c 0,-14.4338 -11.7009,-26.1347 -26.1347,-26.1347 H 576.2704 c -14.4338,0 -26.1347,11.7009 -26.1347,26.1347 z"
         style="fill:#fbe5d6;fill-opacity:1;fill-rule:nonzero;stroke:none"
         id="path38" /><g
         id="g40"
         transform="matrix(7.874016e-5,0,0,-7.874016e-5,550.1357,369.9095)"><path
           d="M 0,331910.8 C 0,148601.5 148601.7,0 331911.1,0 H 1659515 c 183309,0 331911,148601.5 331911,331910.8 V 2541999 c 0,183309 -148602,331911 -331911,331911 H 331911.1 C 148601.7,2873910 0,2725308 0,2541999 Z"
           style="fill:none;stroke:#c55a11;stroke-width:12700;stroke-linecap:butt;stroke-linejoin:miter;stroke-miterlimit:8;stroke-dasharray:none;stroke-opacity:1"
           id="path42" /></g><g
         id="g44"
         transform="matrix(0.24,0,0,0.24,585.4133,-384.24)"><text
           transform="matrix(1,0,0,-1,0,2250)"
           style="font-variant:normal;font-weight:normal;font-size:75px;font-family:Calibri;-inkscape-font-specification:Calibri;writing-mode:lr-tb;fill:#c55a11;fill-opacity:1;fill-rule:nonzero;stroke:none"
           id="text48"><tspan
             x="0 49.477501 89.055 114.0825 153.66 193.2375 218.265 235.49249 258.42001 275.64749 292.875 330.35251"
             y="0"
             sodipodi:role="line"
             id="tspan46">Output files</tspan></text></g><path
         d="m 184.7499,340.5504 c 0,16.1029 13.054,29.1568 29.1569,29.1568 H 330.531 c 16.103,0 29.1569,-13.0539 29.1569,-29.1568 V 172.572 c 0,-16.1029 -13.0539,-29.1569 -29.1569,-29.1569 H 213.9068 c -16.1029,0 -29.1569,13.054 -29.1569,29.1569 z"
         style="fill:#fff2cc;fill-opacity:1;fill-rule:nonzero;stroke:none"
         id="path50" /><g
         id="g52"
         transform="matrix(7.874016e-5,0,0,-7.874016e-5,184.7499,369.7072)"><path
           d="M 0,370292.5 C 0,165785.6 165785.8,0 370292.8,0 H 1851420 c 204507,0 370293,165785.6 370293,370292.5 V 2503618 c 0,204507 -165786,370292 -370293,370292 H 370292.8 C 165785.8,2873910 0,2708125 0,2503618 Z"
           style="fill:none;stroke:#bf9000;stroke-width:12700;stroke-linecap:butt;stroke-linejoin:miter;stroke-miterlimit:8;stroke-dasharray:none;stroke-opacity:1"
           id="path54" /></g><g
         id="g56"
         transform="matrix(0.24,0,0,0.24,207.7039,-383.52)"><text
           transform="matrix(1,0,0,-1,0,2250)"
           style="font-variant:normal;font-weight:normal;font-size:75px;font-family:Calibri;-inkscape-font-specification:Calibri;writing-mode:lr-tb;fill:#bf9000;fill-opacity:1;fill-rule:nonzero;stroke:none"
           id="text60"><tspan
             x="0 18.75 57.674999 81.824997 119.325 145.35001 205.27499 242.77499 282.375 299.54999 334.79999 358.95001 396.45001 413.625 436.57501 453.75 470.92499 508.42499"
             y="0"
             sodipodi:role="line"
             id="tspan58">Intermediate files</tspan></text></g><path
         d="m 170.6181,432.9817 c 41.8614,-9.0551 41.8614,9.0551 83.7182,9.0551 v 47.0702 h -83.7182 z m 6.8974,56.1253 v 6.1024 h 83.1464 v -47.3655 c -3.1605,0 -6.3256,-0.3281 -6.3256,-0.3281 v 41.5912 z m 6.4831,6.1024 v 5.9547 h 83.8668 v -47.2178 c -3.6017,0 -7.2035,-0.2461 -7.2035,-0.2461 v 41.5092 z"
         style="fill:#c5e0b4;fill-opacity:1;fill-rule:nonzero;stroke:none"
         id="path62" /><g
         id="g64"
         transform="matrix(7.874016e-5,0,0,-7.874016e-5,170.6181,501.1641)"><path
           d="m 0,153125 h 1063222 v 597791.7 c -531582.6,0 -531582.6,230000 -1063222,115000 z m 87596.43,0 V 75625 H 1143556 v 601541.7 c -40138,0 -80334,4166.7 -80334,4166.7 M 169932.5,75625 V 0 H 1235041 v 599666.7 c -45742,0 -91485,3125 -91485,3125"
           style="fill:none;stroke:#385723;stroke-width:12700;stroke-linecap:butt;stroke-linejoin:miter;stroke-miterlimit:8;stroke-dasharray:none;stroke-opacity:1"
           id="path66" /></g><g
         id="g68"
         transform="matrix(0.24,0,0,0.24,189.4222,-71.51999)"><text
           transform="matrix(1,0,0,-1,0,2250)"
           style="font-variant:normal;font-weight:normal;font-size:75px;font-family:Calibri;-inkscape-font-specification:Calibri;writing-mode:lr-tb;fill:#0d0d0d;fill-opacity:1;fill-rule:nonzero;stroke:none"
           id="text72"><tspan
             x="0 30.165001 73.379997 107.22 141.58501"
             y="0"
             sodipodi:role="line"
             id="tspan70">FASTQ</tspan></text></g><g
         id="g74"
         transform="matrix(0.24,0,0,0.24,178.0922,-92.39999)"><text
           transform="matrix(1,0,0,-1,0,2250)"
           style="font-variant:normal;font-weight:normal;font-size:75px;font-family:Calibri;-inkscape-font-specification:Calibri;writing-mode:lr-tb;fill:#0d0d0d;fill-opacity:1;fill-rule:nonzero;stroke:none"
           id="text78"><tspan
             x="0 22.92 44.264999 83.834999 110.28 163.125 199.095 224.11501 263.685"
             y="0"
             sodipodi:role="line"
             id="tspan76">(forward)</tspan></text></g><path
         d="m 287.9505,432.9817 c 41.8532,-9.0551 41.8532,9.0551 83.7018,9.0551 v 47.0702 h -83.7018 z m 6.896,56.1253 v 6.1024 h 83.1302 v -47.3655 c -3.1599,0 -6.3244,-0.3281 -6.3244,-0.3281 v 41.5912 z m 6.4819,6.1024 v 5.9547 h 83.8504 v -47.2178 c -3.6011,0 -7.2021,-0.2461 -7.2021,-0.2461 v 41.5092 z"
         style="fill:#c5e0b4;fill-opacity:1;fill-rule:nonzero;stroke:none"
         id="path80" /><g
         id="g82"
         transform="matrix(7.874016e-5,0,0,-7.874016e-5,287.9505,501.1641)"><path
           d="m 0,153125 h 1063014 v 597791.7 c -531478.3,0 -531478.3,230000 -1063014,115000 z m 87579.33,0 V 75625 H 1143333 v 601541.7 c -40131,0 -80319,4166.7 -80319,4166.7 M 169899.3,75625 V 0 H 1234800 v 599666.7 c -45733,0 -91467,3125 -91467,3125"
           style="fill:none;stroke:#385723;stroke-width:12700;stroke-linecap:butt;stroke-linejoin:miter;stroke-miterlimit:8;stroke-dasharray:none;stroke-opacity:1"
           id="path84" /></g><g
         id="g86"
         transform="matrix(0.24,0,0,0.24,306.7489,-71.51999)"><text
           transform="matrix(1,0,0,-1,0,2250)"
           style="font-variant:normal;font-weight:normal;font-size:75px;font-family:Calibri;-inkscape-font-specification:Calibri;writing-mode:lr-tb;fill:#0d0d0d;fill-opacity:1;fill-rule:nonzero;stroke:none"
           id="text90"><tspan
             x="0 30.165001 73.379997 107.22 141.58501"
             y="0"
             sodipodi:role="line"
             id="tspan88">FASTQ</tspan></text></g><g
         id="g92"
         transform="matrix(0.24,0,0,0.24,297.3939,-92.39999)"><text
           transform="matrix(1,0,0,-1,0,2250)"
           style="font-variant:normal;font-weight:normal;font-size:75px;font-family:Calibri;-inkscape-font-specification:Calibri;writing-mode:lr-tb;fill:#0d0d0d;fill-opacity:1;fill-rule:nonzero;stroke:none"
           id="text96"><tspan
             x="0 22.92 48.014999 85.110001 118.23 155.7 180.42 209.565 247.035"
             y="0"
             sodipodi:role="line"
             id="tspan94">(reverse)</tspan></text></g><path
         d="M 203.8493,402.5709 H 340.5887 V 374.8374 H 203.8493 Z"
         style="fill:#4472c4;fill-opacity:1;fill-rule:nonzero;stroke:none"
         id="path98" /><g
         id="g100"
         transform="matrix(7.874016e-5,0,0,-7.874016e-5,203.8493,402.5709)"><path
           d="M 217073.9,0 V 352215 M 1519517,0 v 352215"
           style="fill:none;stroke:#2f528f;stroke-width:12700;stroke-linecap:butt;stroke-linejoin:miter;stroke-miterlimit:8;stroke-dasharray:none;stroke-opacity:1"
           id="path102" /></g><g
         id="g104"
         transform="matrix(7.874016e-5,0,0,-7.874016e-5,203.8493,402.5709)"><path
           d="M 0,0 H 1736591 V 352215 H 0 Z"
           style="fill:none;stroke:#2f528f;stroke-width:12700;stroke-linecap:butt;stroke-linejoin:miter;stroke-miterlimit:8;stroke-dasharray:none;stroke-opacity:1"
           id="path106" /></g><g
         id="g108"
         transform="matrix(0.24,0,0,0.24,234.594,-157.44)"><text
           transform="matrix(1,0,0,-1,0,2250)"
           style="font-variant:normal;font-weight:normal;font-size:75px;font-family:'Andale Mono';-inkscape-font-specification:AndaleMono;writing-mode:lr-tb;fill:#ffffff;fill-opacity:1;fill-rule:nonzero;stroke:none"
           id="text112"><tspan
             x="0 44.790001 89.580002 134.37 179.16 223.95 268.73999"
             y="0"
             sodipodi:role="line"
             id="tspan110">prepare</tspan></text></g><path
         d="m 331.0538,432.9817 v -16.4554 h -58.8347 l 1.25,1.25 v -8.9554 h -2.5 v 10.2054 h 58.8347 l -1.25,-1.25 v 15.2054 z m -52.5847,-22.9108 -6.25,-7.5 -6.25,7.5 z"
         style="fill:#4472c4;fill-opacity:1;fill-rule:nonzero;stroke:none"
         id="path114" /><path
         d="m 211.2294,432.9817 v -16.4554 h 60.9897 l -1.25,1.25 v -8.9554 h 2.5 v 10.2054 h -60.9897 l 1.25,-1.25 v 15.2054 z m 54.7397,-22.9108 6.25,-7.5 6.25,7.5 z"
         style="fill:#4472c4;fill-opacity:1;fill-rule:nonzero;stroke:none"
         id="path116" /><path
         d="m 273.4691,374.8374 v -11.0598 h -2.5 v 11.0598 z m 5,-9.8098 -6.25,-7.5 -6.25,7.4999 z"
         style="fill:#4472c4;fill-opacity:1;fill-rule:nonzero;stroke:none"
         id="path118" /><path
         d="M 203.8493,276.1223 H 340.5888 V 248.1991 H 203.8493 Z"
         style="fill:#4472c4;fill-opacity:1;fill-rule:nonzero;stroke:none"
         id="path120" /><g
         id="g122"
         transform="matrix(7.874016e-5,0,0,-7.874016e-5,203.8493,276.1223)"><path
           d="M 217074,0 V 354625 M 1519518,0 v 354625"
           style="fill:none;stroke:#2f528f;stroke-width:12700;stroke-linecap:butt;stroke-linejoin:miter;stroke-miterlimit:8;stroke-dasharray:none;stroke-opacity:1"
           id="path124" /></g><g
         id="g126"
         transform="matrix(7.874016e-5,0,0,-7.874016e-5,203.8493,276.1223)"><path
           d="M 0,0 H 1736592 V 354625 H 0 Z"
           style="fill:none;stroke:#2f528f;stroke-width:12700;stroke-linecap:butt;stroke-linejoin:miter;stroke-miterlimit:8;stroke-dasharray:none;stroke-opacity:1"
           id="path128" /></g><g
         id="g130"
         transform="matrix(0.24,0,0,0.24,229.2191,-283.92)"><text
           transform="matrix(1,0,0,-1,0,2250)"
           style="font-variant:normal;font-weight:normal;font-size:75px;font-family:'Andale Mono';-inkscape-font-specification:AndaleMono;writing-mode:lr-tb;fill:#ffffff;fill-opacity:1;fill-rule:nonzero;stroke:none"
           id="text134"><tspan
             x="0 44.790001 89.580002 134.37 179.16 223.95 268.73999 313.53"
             y="0"
             sodipodi:role="line"
             id="tspan132">classify</tspan></text></g><path
         d="m 273.4691,357.5276 v -75.1553 h -2.5 v 75.1553 z m 5,-73.9053 -6.25,-7.5 -6.25,7.5 z"
         style="fill:#4472c4;fill-opacity:1;fill-rule:nonzero;stroke:none"
         id="path136" /><path
         d="m 273.4691,248.1991 v -20.0452 h -2.5 v 20.0452 z m 5,-18.7952 -6.25,-7.5 -6.25,7.4999 z"
         style="fill:#4472c4;fill-opacity:1;fill-rule:nonzero;stroke:none"
         id="path138" /><path
         d="m 398.8688,287.5632 h 111.7091 c 15.4238,0 27.9273,-11.5073 27.9273,-25.7022 0,-14.195 -12.5035,-25.7023 -27.9273,-25.7023 H 398.8688 c -15.4238,0 -27.9272,11.5073 -27.9272,25.7023 0,14.1949 12.5034,25.7022 27.9272,25.7022 z"
         style="fill:#b4c7e7;fill-opacity:1;fill-rule:nonzero;stroke:none"
         id="path140" /><g
         id="g142"
         transform="matrix(7.874016e-5,0,0,-7.874016e-5,370.9416,287.5632)"><path
           d="m 1773382,652838 c -195883,0 -354677,-146142.8 -354677,-326419 C 1418705,146142.8 1577499,0 1773382,0"
           style="fill:none;stroke:#0d0d0d;stroke-width:12700;stroke-linecap:butt;stroke-linejoin:miter;stroke-miterlimit:8;stroke-dasharray:none;stroke-opacity:1"
           id="path144" /></g><g
         id="g146"
         transform="matrix(7.874016e-5,0,0,-7.874016e-5,370.9416,287.5632)"><path
           d="M 354676.3,0 H 1773382 c 195882,0 354676,146142.8 354676,326419 0,180276.2 -158794,326419 -354676,326419 H 354676.3 C 158794,652838 0,506695.2 0,326419 0,146142.8 158794,0 354676.3,0 Z"
           style="fill:none;stroke:#0d0d0d;stroke-width:12700;stroke-linecap:butt;stroke-linejoin:miter;stroke-miterlimit:8;stroke-dasharray:none;stroke-opacity:1"
           id="path148" /></g><g
         id="g150"
         transform="matrix(0.24,0,0,0.24,425.4922,-273.6)"><text
           transform="matrix(1,0,0,-1,0,2250)"
           style="font-variant:normal;font-weight:normal;font-size:75px;font-family:Calibri;-inkscape-font-specification:Calibri;writing-mode:lr-tb;fill:#0d0d0d;fill-opacity:1;fill-rule:nonzero;stroke:none"
           id="text154"><tspan
             x="0 18.75 54.825001 89.175003 127.2"
             y="0"
             sodipodi:role="line"
             id="tspan152">ITS1 </tspan></text></g><g
         id="g156"
         transform="matrix(0.24,0,0,0.24,406.7022,-294.48)"><text
           transform="matrix(1,0,0,-1,0,2250)"
           style="font-variant:normal;font-weight:normal;font-size:75px;font-family:Calibri;-inkscape-font-specification:Calibri;writing-mode:lr-tb;fill:#0d0d0d;fill-opacity:1;fill-rule:nonzero;stroke:none"
           id="text160"><tspan
             x="0 46.357498 81.614998 105.6975 141.63 181.2375 217.17 246.35249"
             y="0"
             sodipodi:role="line"
             id="tspan158">Database</tspan></text></g><path
         d="m 370.9292,260.611 -24.1031,0.238 0.0247,2.4999 24.1031,-0.238 z m -22.9025,-4.7741 -7.4379,6.3237 7.5613,6.1757 z"
         style="fill:#4472c4;fill-opacity:1;fill-rule:nonzero;stroke:none"
         id="path162" /><path
         d="m 194.4421,289.3452 c 58.8613,-9.0552 58.8613,9.0551 117.7163,9.0551 v 47.0702 H 194.4421 Z m 9.6984,56.1253 v 6.1023 h 116.9123 v -47.3654 c -4.444,0 -8.8944,-0.3281 -8.8944,-0.3281 v 41.5912 z m 9.116,6.1023 v 5.9548 h 117.9252 v -47.2179 c -5.0645,0 -10.1289,-0.246 -10.1289,-0.246 v 41.5091 z"
         style="fill:#ffe699;fill-opacity:1;fill-rule:nonzero;stroke:none"
         id="path164" /><g
         id="g166"
         transform="matrix(7.874016e-5,0,0,-7.874016e-5,194.4421,357.5276)"><path
           d="m 0,153125 h 1494997 v 597791.7 c -747458.4,0 -747458.4,230000 -1494997,115000 z m 123169.4,0 V 75625 H 1607956 v 601541.7 c -56440,0 -112959,4166.7 -112959,4166.7 M 238942.2,75625 V 0 H 1736592 v 599666.7 c -64318,0 -128636,3125 -128636,3125"
           style="fill:none;stroke:#0d0d0d;stroke-width:12700;stroke-linecap:butt;stroke-linejoin:miter;stroke-miterlimit:8;stroke-dasharray:none;stroke-opacity:1"
           id="path168" /></g><g
         id="g170"
         transform="matrix(0.24,0,0,0.24,231.5702,-215.04)"><text
           transform="matrix(1,0,0,-1,0,2250)"
           style="font-variant:normal;font-weight:normal;font-size:75px;font-family:Calibri;-inkscape-font-specification:Calibri;writing-mode:lr-tb;fill:#0d0d0d;fill-opacity:1;fill-rule:nonzero;stroke:none"
           id="text174"><tspan
             x="0 30.165001 73.379997 107.22 137.83501"
             y="0"
             sodipodi:role="line"
             id="tspan172">FASTA</tspan></text></g><g
         id="g176"
         transform="matrix(0.24,0,0,0.24,207.0502,-236.16)"><text
           transform="matrix(1,0,0,-1,0,2250)"
           style="font-variant:normal;font-weight:normal;font-size:75px;font-family:Calibri;-inkscape-font-specification:Calibri;writing-mode:lr-tb;fill:#0d0d0d;fill-opacity:1;fill-rule:nonzero;stroke:none"
           id="text180"><tspan
             x="0 22.92 62.490002 99.959999 126.03 143.25 172.395 208.36501 268.26001 307.82999 325.04999 362.51999"
             y="0"
             sodipodi:role="line"
             id="tspan178">(per sample)</tspan></text></g><path
         d="M 370.9416,218.2133 H 538.5052 V 190.1636 H 370.9416 Z"
         style="fill:#4472c4;fill-opacity:1;fill-rule:nonzero;stroke:none"
         id="path182" /><g
         id="g184"
         transform="matrix(7.874016e-5,0,0,-7.874016e-5,370.9416,218.2133)"><path
           d="M 266007.2,0 V 356232 M 1862051,0 v 356232"
           style="fill:none;stroke:#2f528f;stroke-width:12700;stroke-linecap:butt;stroke-linejoin:miter;stroke-miterlimit:8;stroke-dasharray:none;stroke-opacity:1"
           id="path186" /></g><g
         id="g188"
         transform="matrix(7.874016e-5,0,0,-7.874016e-5,370.9416,218.2133)"><path
           d="M 0,0 H 2128058 V 356232 H 0 Z"
           style="fill:none;stroke:#2f528f;stroke-width:12700;stroke-linecap:butt;stroke-linejoin:miter;stroke-miterlimit:8;stroke-dasharray:none;stroke-opacity:1"
           id="path190" /></g><g
         id="g192"
         transform="matrix(0.24,0,0,0.24,417.0984,-342)"><text
           transform="matrix(1,0,0,-1,0,2250)"
           style="font-variant:normal;font-weight:normal;font-size:75px;font-family:'Andale Mono';-inkscape-font-specification:AndaleMono;writing-mode:lr-tb;fill:#ffffff;fill-opacity:1;fill-rule:nonzero;stroke:none"
           id="text196"><tspan
             x="0 44.790001 89.580002 134.37 179.16 223.95 268.73999"
             y="0"
             sodipodi:role="line"
             id="tspan194">summary</tspan></text></g><path
         d="m 327.8794,202.6471 36.8208,0.2491 -0.0169,2.4999 -36.8208,-0.249 z m 35.6046,-4.7593 7.4576,6.3006 -7.5421,6.1992 z"
         style="fill:#4472c4;fill-opacity:1;fill-rule:nonzero;stroke:none"
         id="path198" /><path
         d="M 370.9416,335.93 H 538.5052 V 308.1965 H 370.9416 Z"
         style="fill:#4472c4;fill-opacity:1;fill-rule:nonzero;stroke:none"
         id="path200" /><g
         id="g202"
         transform="matrix(7.874016e-5,0,0,-7.874016e-5,370.9416,335.93)"><path
           d="M 266007.2,0 V 352215 M 1862051,0 v 352215"
           style="fill:none;stroke:#2f528f;stroke-width:12700;stroke-linecap:butt;stroke-linejoin:miter;stroke-miterlimit:8;stroke-dasharray:none;stroke-opacity:1"
           id="path204" /></g><g
         id="g206"
         transform="matrix(7.874016e-5,0,0,-7.874016e-5,370.9416,335.93)"><path
           d="M 0,0 H 2128058 V 352215 H 0 Z"
           style="fill:none;stroke:#2f528f;stroke-width:12700;stroke-linecap:butt;stroke-linejoin:miter;stroke-miterlimit:8;stroke-dasharray:none;stroke-opacity:1"
           id="path208" /></g><g
         id="g210"
         transform="matrix(0.24,0,0,0.24,400.9733,-224.16)"><text
           transform="matrix(1,0,0,-1,0,2250)"
           style="font-variant:normal;font-weight:normal;font-size:75px;font-family:'Andale Mono';-inkscape-font-specification:AndaleMono;writing-mode:lr-tb;fill:#ffffff;fill-opacity:1;fill-rule:nonzero;stroke:none"
           id="text214"><tspan
             x="0 44.790001 89.580002 134.37"
             y="0"
             sodipodi:role="line"
             id="tspan212">edit</tspan></text></g><g
         id="g216"
         transform="matrix(0.24,0,0,0.24,443.9733,-224.16)"><text
           transform="matrix(1,0,0,-1,0,2250)"
           style="font-variant:normal;font-weight:normal;font-size:75px;font-family:'Andale Mono';-inkscape-font-specification:AndaleMono;writing-mode:lr-tb;fill:#ffffff;fill-opacity:1;fill-rule:nonzero;stroke:none"
           id="text220"><tspan
             x="0"
             y="0"
             id="tspan218">-</tspan></text></g><g
         id="g222"
         transform="matrix(0.24,0,0,0.24,454.7233,-224.16)"><text
           transform="matrix(1,0,0,-1,0,2250)"
           style="font-variant:normal;font-weight:normal;font-size:75px;font-family:'Andale Mono';-inkscape-font-specification:AndaleMono;writing-mode:lr-tb;fill:#ffffff;fill-opacity:1;fill-rule:nonzero;stroke:none"
           id="text226"><tspan
             x="0 44.790001 89.580002 134.37 179.16"
             y="0"
             sodipodi:role="line"
             id="tspan224">graph</tspan></text></g><path
         d="m 331.1826,323.3445 33.51,-0.0264 -0.002,-2.5 -33.5099,0.0264 0.002,2.5 z m 32.2639,4.9746 7.4951,-6.2559 -7.5049,-6.2441 0.01,12.5 z"
         style="fill:#4472c4;fill-opacity:1;fill-rule:nonzero;stroke:none"
         id="path228" /><path
         d="m 455.9734,287.5632 v 14.3833 l -2.5,10e-5 v -14.3833 z m 5,13.1333 -6.2499,7.5001 -6.2501,-7.5 z"
         style="fill:#4472c4;fill-opacity:1;fill-rule:nonzero;stroke:none"
         id="path230" /><path
         d="m 563.478,353.9843 h 127.5591 v -51.1477 c -63.7795,0 -63.7795,-19.4882 -127.5591,-8.4153 z"
         style="fill:#f8cbad;fill-opacity:1;fill-rule:nonzero;stroke:none"
         id="path232" /><g
         id="g234"
         transform="matrix(7.874016e-5,0,0,-7.874016e-5,563.478,353.9843)"><path
           d="M 0,0 H 1620000 V 649575 C 810000,649575 810000,897075 0,756450 Z"
           style="fill:none;stroke:#0d0d0d;stroke-width:12700;stroke-linecap:butt;stroke-linejoin:miter;stroke-miterlimit:8;stroke-dasharray:none;stroke-opacity:1"
           id="path236" /></g><g
         id="g238"
         transform="matrix(0.24,0,0,0.24,574.915,-206.64)"><text
           transform="matrix(1,0,0,-1,0,2250)"
           style="font-variant:normal;font-weight:normal;font-size:75px;font-family:Calibri;-inkscape-font-specification:Calibri;writing-mode:lr-tb;fill:#0d0d0d;fill-opacity:1;fill-rule:nonzero;stroke:none"
           id="text242"><tspan
             x="0 36.689999 84.105003 148.17 212.235 243.97501 261.16501 296.57999 321.12 357.06 396.67499"
             y="0"
             sodipodi:role="line"
             id="tspan240">XGMML graph</tspan></text></g><g
         id="g244"
         transform="matrix(0.24,0,0,0.24,577.375,-227.52)"><text
           transform="matrix(1,0,0,-1,0,2250)"
           style="font-variant:normal;font-weight:normal;font-size:75px;font-family:Calibri;-inkscape-font-specification:Calibri;writing-mode:lr-tb;fill:#0d0d0d;fill-opacity:1;fill-rule:nonzero;stroke:none"
           id="text248"><tspan
             x="0 21.33 60.884998 86.940002"
             y="0"
             sodipodi:role="line"
             id="tspan246">for </tspan></text></g><g
         id="g250"
         transform="matrix(0.24,0,0,0.24,602.37,-227.52)"><text
           transform="matrix(1,0,0,-1,0,2250)"
           style="font-variant:normal;font-weight:normal;font-size:75px;font-family:Calibri;-inkscape-font-specification:Calibri;writing-mode:lr-tb;fill:#0d0d0d;fill-opacity:1;fill-rule:nonzero;stroke:none"
           id="text254"><tspan
             x="0 40.102501 74.355003 98.6325 138.21001 167.3625 198.53999 234.4425 274.01999"
             y="0"
             sodipodi:role="line"
             id="tspan252">Cytoscape</tspan></text></g><path
         d="m 563.478,236.0782 h 127.5591 v -51.1476 c -63.7795,0 -63.7795,-19.4882 -127.5591,-8.4154 z"
         style="fill:#f8cbad;fill-opacity:1;fill-rule:nonzero;stroke:none"
         id="path256" /><g
         id="g258"
         transform="matrix(7.874016e-5,0,0,-7.874016e-5,563.478,236.0782)"><path
           d="M 0,0 H 1620000 V 649575 C 810000,649575 810000,897075 0,756450 Z"
           style="fill:none;stroke:#0d0d0d;stroke-width:12700;stroke-linecap:butt;stroke-linejoin:miter;stroke-miterlimit:8;stroke-dasharray:none;stroke-opacity:1"
           id="path260" /></g><g
         id="g262"
         transform="matrix(0.24,0,0,0.24,579.5175,-324.48)"><text
           transform="matrix(1,0,0,-1,0,2250)"
           style="font-variant:normal;font-weight:normal;font-size:75px;font-family:Calibri;-inkscape-font-specification:Calibri;writing-mode:lr-tb;fill:#0d0d0d;fill-opacity:1;fill-rule:nonzero;stroke:none"
           id="text266"><tspan
             x="0 36.4575 75.517502 104.2875 123.0375 140.22749 176.31 210.16499 246.78751 265.53751 282.72751 318.66751 358.2525 397.83749"
             y="0"
             sodipodi:role="line"
             id="tspan264">TXT, TSV, and </tspan></text></g><g
         id="g268"
         transform="matrix(0.24,0,0,0.24,580.1426,-345.6)"><text
           transform="matrix(1,0,0,-1,0,2250)"
           style="font-variant:normal;font-weight:normal;font-size:75px;font-family:Calibri;-inkscape-font-specification:Calibri;writing-mode:lr-tb;fill:#0d0d0d;fill-opacity:1;fill-rule:nonzero;stroke:none"
           id="text272"><tspan
             x="0 36.4575 67.065002 98.872498 136.38 153.5625 170.745 195.80251 233.31 272.91751 312.52499 338.5575 363.54001"
             y="0"
             sodipodi:role="line"
             id="tspan270">Excel reports</tspan></text></g><path
         d="m 538.5068,320.8132 18.7228,0.0235 -0.003,2.5 -18.7229,-0.0235 0.003,-2.5 z m 17.4791,-4.9781 7.4921,6.2594 -7.5078,6.2406 z"
         style="fill:#4472c4;fill-opacity:1;fill-rule:nonzero;stroke:none"
         id="path274" /><path
         d="m 538.5052,205.4384 h 18.7228 v -2.5 h -18.7228 z m 17.4729,5 7.4999,-6.25 -7.5,-6.25 z"
         style="fill:#4472c4;fill-opacity:1;fill-rule:nonzero;stroke:none"
         id="path276" /><path
         d="m 200.3119,221.9039 h 127.559 v -28.8808 c -63.7795,0 -63.7795,-11.0042 -127.559,-4.7518 z"
         style="fill:#ffe699;fill-opacity:1;fill-rule:nonzero;stroke:none"
         id="path278" /><g
         id="g280"
         transform="matrix(7.874016e-5,0,0,-7.874016e-5,200.3119,221.9039)"><path
           d="M 0,0 H 1620000 V 366786.1 C 810000,366786.1 810000,506538.4 0,427133.7 Z"
           style="fill:none;stroke:#0d0d0d;stroke-width:12700;stroke-linecap:butt;stroke-linejoin:miter;stroke-miterlimit:8;stroke-dasharray:none;stroke-opacity:1"
           id="path282" /></g><g
         id="g284"
         transform="matrix(0.24,0,0,0.24,223.2539,-338.64)"><text
           transform="matrix(1,0,0,-1,0,2250)"
           style="font-variant:normal;font-weight:normal;font-size:75px;font-family:Calibri;-inkscape-font-specification:Calibri;writing-mode:lr-tb;fill:#0d0d0d;fill-opacity:1;fill-rule:nonzero;stroke:none"
           id="text288"><tspan
             x="0 37.0425 76.635002 116.2275 133.395 170.8875 210.48 227.64751 263.715 297.60751"
             y="0"
             sodipodi:role="line"
             id="tspan286">Pooled TSV</tspan></text></g></g></g></svg>
