<?xml version="1.0" encoding="UTF-8" standalone="no"?>
<svg
   xmlns:dc="http://purl.org/dc/elements/1.1/"
   xmlns:cc="http://creativecommons.org/ns#"
   xmlns:rdf="http://www.w3.org/1999/02/22-rdf-syntax-ns#"
   xmlns:svg="http://www.w3.org/2000/svg"
   xmlns="http://www.w3.org/2000/svg"
   viewBox="0 0 639.58411 451.43707"
   height="451.43707"
   width="639.58411"
   xml:space="preserve"
   id="svg2"
   version="1.1"><metadata
     id="metadata8"><rdf:RDF><cc:Work
         rdf:about=""><dc:format>image/svg+xml</dc:format><dc:type
           rdf:resource="http://purl.org/dc/dcmitype/StillImage" /></cc:Work></rdf:RDF></metadata><defs
     id="defs6"><clipPath
       id="clipPath14"
       clipPathUnits="userSpaceOnUse"><path
         id="path12"
         d="M 0,0 H 842 V 595 H 0 Z" /></clipPath><clipPath
       id="clipPath24"
       clipPathUnits="userSpaceOnUse"><path
         id="path22"
         d="M 12,528 H 829.92 V 68.16 L 12,68.16 Z" /></clipPath><clipPath
       id="clipPath30"
       clipPathUnits="userSpaceOnUse"><path
         id="path28"
         d="M 12,68 H 830 V 528 H 12 Z" /></clipPath><clipPath
       id="clipPath40"
       clipPathUnits="userSpaceOnUse"><path
         id="path38"
         d="M 12,68 H 830 V 528 H 12 Z" /></clipPath></defs><g
     clip-path="url(#clipPath14)"
     transform="matrix(1.3333333,0,0,-1.3333333,-197.56053,691.77667)"
     id="g10"><g
       id="g16" /><g
       id="g18"><g
         clip-path="url(#clipPath24)"
         id="g20"><g
           clip-path="url(#clipPath30)"
           id="g26"><path
             id="path32"
             style="fill:#ffffff;fill-opacity:1;fill-rule:nonzero;stroke:none"
             d="M 12,528 H 829.92 V 68.16 L 12,68.16 Z" /></g></g></g><g
       id="g34"><g
         clip-path="url(#clipPath40)"
         id="g36"><path
           id="path42"
           style="fill:#ffffff;fill-opacity:1;fill-rule:nonzero;stroke:none"
           d="M 12,528 H 830 V 68 H 12 Z" /><path
           id="path44"
           style="fill:#e2f0d9;fill-opacity:1;fill-rule:nonzero;stroke:none"
           d="m 149.9446,503.1833 c 0,7.9577 6.4527,14.4087 14.4126,14.4087 h 168.982 c 7.9599,0 14.4127,-6.451 14.4127,-14.4087 v -57.6335 c 0,-7.9577 -6.4528,-14.4087 -14.4127,-14.4087 h -168.982 c -7.9599,0 -14.4126,6.451 -14.4126,14.4087 z" /><g
           transform="matrix(6.709317e-5,0,0,-6.707495e-5,149.9446,517.592)"
           id="g46"><path
             id="path48"
             style="fill:none;stroke:#548235;stroke-width:14908.70019531;stroke-linecap:butt;stroke-linejoin:miter;stroke-miterlimit:8;stroke-dasharray:none;stroke-opacity:1"
             d="M 0,214815.6 C 0,96176.22 96176.04,0 214815.2,0 H 2733433 c 118639,0 214815,96176.22 214815,214815.6 V 1074055 c 0,118640 -96176,214816 -214815,214816 H 214815.2 C 96176.04,1288871 0,1192695 0,1074055 Z" /></g><g
           transform="matrix(0.24,0,0,0.2399348,217.8487,39.4849)"
           id="g50"><text
             id="text54"
             style="font-variant:normal;font-weight:normal;font-size:62.5px;font-family:Calibri;-inkscape-font-specification:Calibri;writing-mode:lr-tb;fill:#548235;fill-opacity:1;fill-rule:nonzero;stroke:none"
             transform="matrix(1,0,0,-1,0,1916)"><tspan
               id="tspan52"
               y="0"
               x="0 15.975 49.700001 83.425003 117.15 138.4375 153.10001 172.6375 187.3 201.96249 233.9375">Input files</tspan></text>
</g><path
           id="path56"
           style="fill:#fbe5d6;fill-opacity:1;fill-rule:nonzero;stroke:none"
           d="m 477.2985,361.7532 c 0,13.7173 11.123,24.8373 24.844,24.8373 h 99.3737 c 13.721,0 24.844,-11.12 24.844,-24.8373 V 206.7686 c 0,-13.7173 -11.123,-24.8373 -24.844,-24.8373 h -99.3737 c -13.721,0 -24.844,11.12 -24.844,24.8373 z" /><g
           transform="matrix(6.709317e-5,0,0,-6.707495e-5,477.2985,386.5905)"
           id="g58"><path
             id="path60"
             style="fill:none;stroke:#c55a11;stroke-width:14908.70019531;stroke-linecap:butt;stroke-linejoin:miter;stroke-miterlimit:8;stroke-dasharray:none;stroke-opacity:1"
             d="M 0,370291.9 C 0,165785.3 165785.5,0 370292.2,0 H 1851421 c 204506,0 370292,165785.3 370292,370291.9 V 2680910 c 0,204507 -165786,370292 -370292,370292 H 370292.2 C 165785.5,3051202 0,2885417 0,2680910 Z" /></g><g
           transform="matrix(0.24,0,0,0.2399348,515.0833,-266.0351)"
           id="g62"><text
             id="text66"
             style="font-variant:normal;font-weight:normal;font-size:62.5px;font-family:Calibri;-inkscape-font-specification:Calibri;writing-mode:lr-tb;fill:#c55a11;fill-opacity:1;fill-rule:nonzero;stroke:none"
             transform="matrix(1,0,0,-1,0,1916)"><tspan
               id="tspan64"
               y="0"
               x="0 42.162498 75.887497 97.175003 130.89999 164.625 185.91251 200.575 220.1125 234.77499 249.4375 281.41251">Output files</tspan></text>
</g><path
           id="path68"
           style="fill:#fff2cc;fill-opacity:1;fill-rule:nonzero;stroke:none"
           d="m 169.4223,358.0984 c 0,13.7174 11.1232,24.8375 24.8442,24.8375 h 99.3734 c 13.7211,0 24.8442,-11.1201 24.8442,-24.8375 V 206.6845 c 0,-13.7173 -11.1231,-24.8375 -24.8442,-24.8375 h -99.3734 c -13.721,0 -24.8442,11.1202 -24.8442,24.8375 z" /><g
           transform="matrix(6.709317e-5,0,0,-6.707495e-5,169.4223,382.9359)"
           id="g70"><path
             id="path72"
             style="fill:none;stroke:#bf9000;stroke-width:14908.70019531;stroke-linecap:butt;stroke-linejoin:miter;stroke-miterlimit:8;stroke-dasharray:none;stroke-opacity:1"
             d="M 0,370294.1 C 0,165786.3 165786.4,0 370294.3,0 H 1851419 c 204508,0 370294,165786.3 370294,370294.1 V 2627678 c 0,204508 -165786,370294 -370294,370294 H 370294.3 C 165786.4,2997972 0,2832186 0,2627678 Z" /></g><g
           transform="matrix(0.24,0,0,0.2399348,188.9811,-266.2751)"
           id="g74"><text
             id="text78"
             style="font-variant:normal;font-weight:normal;font-size:62.5px;font-family:Calibri;-inkscape-font-specification:Calibri;writing-mode:lr-tb;fill:#bf9000;fill-opacity:1;fill-rule:nonzero;stroke:none"
             transform="matrix(1,0,0,-1,0,1916)"><tspan
               id="tspan76"
               y="0"
               x="0 15.975 49.137501 69.737503 101.7125 123.875 174.91251 206.8875 240.6125 255.27499 285.3125 305.91251 337.88751 352.54999 372.08749 386.75 401.41251 433.38751">Intermediate files</tspan></text>
</g><path
           id="path80"
           style="fill:#c5e0b4;fill-opacity:1;fill-rule:nonzero;stroke:none"
           d="m 157.3808,436.8363 c 35.6694,-7.7137 35.6694,7.7136 71.335,7.7136 v 40.0968 h -71.335 z m 5.8772,47.8104 v 5.1983 h 70.8477 v -40.3484 c -2.6931,0 -5.3899,-0.2794 -5.3899,-0.2794 v 35.4295 z m 5.5242,5.1983 v 5.0726 h 71.4615 V 454.695 c -3.069,0 -6.138,-0.2097 -6.138,-0.2097 v 35.3597 z" /><g
           transform="matrix(6.709317e-5,0,0,-6.707495e-5,157.3808,494.9176)"
           id="g82"><path
             id="path84"
             style="fill:none;stroke:#385723;stroke-width:14908.70019531;stroke-linecap:butt;stroke-linejoin:miter;stroke-miterlimit:8;stroke-dasharray:none;stroke-opacity:1"
             d="m 0,153125 h 1063222 v 597791.7 c -531582.6,0 -531582.6,230000 -1063222,115000 z m 87596.43,0 V 75625 H 1143556 v 601541.7 c -40138,0 -80334,4166.7 -80334,4166.7 M 169932.5,75625 V 0 H 1235041 v 599666.7 c -45742,0 -91485,3125 -91485,3125" /></g><g
           transform="matrix(0.24,0,0,0.2399348,173.4035,7.8049)"
           id="g86"><text
             id="text90"
             style="font-variant:normal;font-weight:normal;font-size:62.5px;font-family:Calibri;-inkscape-font-specification:Calibri;writing-mode:lr-tb;fill:#0d0d0d;fill-opacity:1;fill-rule:nonzero;stroke:none"
             transform="matrix(1,0,0,-1,0,1916)"><tspan
               id="tspan88"
               y="0"
               x="0 25.706249 62.537498 91.368752 120.6375">FASTQ</tspan></text>
</g><g
           transform="matrix(0.24,0,0,0.2399348,163.7494,-11.1551)"
           id="g92"><text
             id="text96"
             style="font-variant:normal;font-weight:normal;font-size:62.5px;font-family:Calibri;-inkscape-font-specification:Calibri;writing-mode:lr-tb;fill:#0d0d0d;fill-opacity:1;fill-rule:nonzero;stroke:none"
             transform="matrix(1,0,0,-1,0,1916)"><tspan
               id="tspan94"
               y="0"
               x="0 19.525 37.674999 71.387497 93.912498 138.9375 169.58749 190.925">(forward</tspan></text>
</g><g
           transform="matrix(0.24,0,0,0.2399348,217.6607,-11.1551)"
           id="g98"><text
             id="text102"
             style="font-variant:normal;font-weight:normal;font-size:62.5px;font-family:Calibri;-inkscape-font-specification:Calibri;writing-mode:lr-tb;fill:#0d0d0d;fill-opacity:1;fill-rule:nonzero;stroke:none"
             transform="matrix(1,0,0,-1,0,1916)"><tspan
               id="tspan100"
               y="0"
               x="0">)</tspan></text>
</g><path
           id="path104"
           style="fill:#c5e0b4;fill-opacity:1;fill-rule:nonzero;stroke:none"
           d="m 257.3578,436.8363 c 35.6624,-7.7137 35.6624,7.7136 71.321,7.7136 v 40.0968 h -71.321 z m 5.876,47.8104 v 5.1983 h 70.8339 v -40.3484 c -2.6926,0 -5.3889,-0.2794 -5.3889,-0.2794 v 35.4295 z m 5.5231,5.1983 v 5.0726 h 71.4475 V 454.695 c -3.0684,0 -6.1367,-0.2097 -6.1367,-0.2097 v 35.3597 z" /><g
           transform="matrix(6.709317e-5,0,0,-6.707495e-5,257.3578,494.9176)"
           id="g106"><path
             id="path108"
             style="fill:none;stroke:#385723;stroke-width:14908.70019531;stroke-linecap:butt;stroke-linejoin:miter;stroke-miterlimit:8;stroke-dasharray:none;stroke-opacity:1"
             d="m 0,153125 h 1063014 v 597791.7 c -531478.3,0 -531478.3,230000 -1063014,115000 z m 87579.33,0 V 75625 H 1143333 v 601541.7 c -40131,0 -80319,4166.7 -80319,4166.7 M 169899.3,75625 V 0 H 1234800 v 599666.7 c -45733,0 -91467,3125 -91467,3125" /></g><g
           transform="matrix(0.24,0,0,0.2399348,273.3756,7.8049)"
           id="g110"><text
             id="text114"
             style="font-variant:normal;font-weight:normal;font-size:62.5px;font-family:Calibri;-inkscape-font-specification:Calibri;writing-mode:lr-tb;fill:#0d0d0d;fill-opacity:1;fill-rule:nonzero;stroke:none"
             transform="matrix(1,0,0,-1,0,1916)"><tspan
               id="tspan112"
               y="0"
               x="0 25.706249 62.537498 91.368752 120.6375">FASTQ</tspan></text>
</g><g
           transform="matrix(0.24,0,0,0.2399348,265.4044,-11.1551)"
           id="g116"><text
             id="text120"
             style="font-variant:normal;font-weight:normal;font-size:62.5px;font-family:Calibri;-inkscape-font-specification:Calibri;writing-mode:lr-tb;fill:#0d0d0d;fill-opacity:1;fill-rule:nonzero;stroke:none"
             transform="matrix(1,0,0,-1,0,1916)"><tspan
               id="tspan118"
               y="0"
               x="0 19.525 40.862499 72.512497 100.725 132.6875 153.77499 178.6125 210.575">(reverse)</tspan></text>
</g><path
           id="path122"
           style="fill:#4472c4;fill-opacity:1;fill-rule:nonzero;stroke:none"
           d="M 185.6966,410.9307 H 302.21 V 387.3059 H 185.6966 Z" /><g
           transform="matrix(6.709317e-5,0,0,-6.707495e-5,185.6966,410.9307)"
           id="g124"><path
             id="path126"
             style="fill:none;stroke:#2f528f;stroke-width:14908.70019531;stroke-linecap:butt;stroke-linejoin:miter;stroke-miterlimit:8;stroke-dasharray:none;stroke-opacity:1"
             d="M 217073.9,0 V 352215 M 1519517,0 v 352215" /></g><g
           transform="matrix(6.709317e-5,0,0,-6.707495e-5,185.6966,410.9307)"
           id="g128"><path
             id="path130"
             style="fill:none;stroke:#2f528f;stroke-width:14908.70019531;stroke-linecap:butt;stroke-linejoin:miter;stroke-miterlimit:8;stroke-dasharray:none;stroke-opacity:1"
             d="M 0,0 H 1736591 V 352215 H 0 Z" /></g><g
           transform="matrix(0.24,0,0,0.2399348,211.8936,-66.3551)"
           id="g132"><text
             id="text136"
             style="font-variant:normal;font-weight:normal;font-size:62.5px;font-family:'Andale Mono';-inkscape-font-specification:AndaleMono;writing-mode:lr-tb;fill:#ffffff;fill-opacity:1;fill-rule:nonzero;stroke:none"
             transform="matrix(1,0,0,-1,0,1916)"><tspan
               id="tspan134"
               y="0"
               x="0 38.168751 76.337502 114.50625 152.675 190.84375">prepar</tspan></text>
</g><g
           transform="matrix(0.24,0,0,0.2399348,266.853,-66.3551)"
           id="g138"><text
             id="text142"
             style="font-variant:normal;font-weight:normal;font-size:62.5px;font-family:'Andale Mono';-inkscape-font-specification:AndaleMono;writing-mode:lr-tb;fill:#ffffff;fill-opacity:1;fill-rule:nonzero;stroke:none"
             transform="matrix(1,0,0,-1,0,1916)"><tspan
               id="tspan140"
               y="0"
               x="0">e</tspan></text>
</g><path
           id="path144"
           style="fill:#4472c4;fill-opacity:1;fill-rule:nonzero;stroke:none"
           d="m 294.0854,436.8362 v -14.0175 h -50.132 l 1.0651,1.0648 v -7.6287 h -2.1302 v 8.6935 h 50.132 l -1.0651,-1.0648 v 12.9527 z m -44.8065,-19.5166 -5.3255,-6.3889 -5.3255,6.3889 z" /><path
           id="path146"
           style="fill:#4472c4;fill-opacity:1;fill-rule:nonzero;stroke:none"
           d="m 191.9851,436.8363 v -14.0176 h 51.9682 l -1.0651,1.0649 v -7.6287 h 2.1302 v 8.6935 h -51.9682 l 1.0651,-1.0648 v 12.9527 z m 46.6427,-19.5166 5.3255,-6.3889 5.3255,6.3889 z" /><path
           id="path148"
           style="fill:#4472c4;fill-opacity:1;fill-rule:nonzero;stroke:none"
           d="m 245.0184,387.3059 10e-5,-9.4213 h -2.1302 l -10e-5,9.4213 z m 4.2605,-8.3565 -5.3255,-6.3889 -5.3256,6.3889 z" /><path
           id="path150"
           style="fill:#4472c4;fill-opacity:1;fill-rule:nonzero;stroke:none"
           d="M 185.6966,304.6252 H 302.2101 V 280.8387 H 185.6966 Z" /><g
           transform="matrix(6.709317e-5,0,0,-6.707495e-5,185.6966,304.6252)"
           id="g152"><path
             id="path154"
             style="fill:none;stroke:#2f528f;stroke-width:14908.70019531;stroke-linecap:butt;stroke-linejoin:miter;stroke-miterlimit:8;stroke-dasharray:none;stroke-opacity:1"
             d="M 217074,0 V 354625 M 1519518,0 v 354625" /></g><g
           transform="matrix(6.709317e-5,0,0,-6.707495e-5,185.6966,304.6252)"
           id="g156"><path
             id="path158"
             style="fill:none;stroke:#2f528f;stroke-width:14908.70019531;stroke-linecap:butt;stroke-linejoin:miter;stroke-miterlimit:8;stroke-dasharray:none;stroke-opacity:1"
             d="M 0,0 H 1736592 V 354625 H 0 Z" /></g><g
           transform="matrix(0.24,0,0,0.2399348,207.3137,-172.9151)"
           id="g160"><text
             id="text164"
             style="font-variant:normal;font-weight:normal;font-size:62.5px;font-family:'Andale Mono';-inkscape-font-specification:AndaleMono;writing-mode:lr-tb;fill:#ffffff;fill-opacity:1;fill-rule:nonzero;stroke:none"
             transform="matrix(1,0,0,-1,0,1916)"><tspan
               id="tspan162"
               y="0"
               x="0 38.168751 76.337502 114.50625 152.675 190.84375 229.0125 267.18124">classify</tspan></text>
</g><path
           id="path166"
           style="fill:#ffe699;fill-opacity:1;fill-rule:nonzero;stroke:none"
           d="m 177.6809,209.106 c 50.1547,-7.7136 50.1547,7.7136 100.3041,7.7136 v 40.0969 H 177.6809 Z m 8.2638,47.8105 v 5.1983 h 99.619 v -40.3484 c -3.7867,0 -7.5787,-0.2795 -7.5787,-0.2795 v 35.4296 z m 7.7676,5.1983 v 5.0725 h 100.4821 v -40.2226 c -4.3154,0 -8.6307,-0.2096 -8.6307,-0.2096 v 35.3597 z" /><g
           transform="matrix(6.709317e-5,0,0,-6.707495e-5,177.6809,267.1873)"
           id="g168"><path
             id="path170"
             style="fill:none;stroke:#0d0d0d;stroke-width:14908.70019531;stroke-linecap:butt;stroke-linejoin:miter;stroke-miterlimit:8;stroke-dasharray:none;stroke-opacity:1"
             d="m 0,153125 h 1494997 v 597791.7 c -747458.4,0 -747458.4,230000 -1494997,115000 z m 123169.4,0 V 75625 H 1607956 v 601541.7 c -56440,0 -112959,4166.7 -112959,4166.7 M 238942.2,75625 V 0 H 1736592 v 599666.7 c -64318,0 -128636,3125 -128636,3125" /></g><g
           transform="matrix(0.24,0,0,0.2399348,216.3127,-219.9551)"
           id="g172"><text
             id="text176"
             style="font-variant:normal;font-weight:normal;font-size:62.5px;font-family:Calibri;-inkscape-font-specification:Calibri;writing-mode:lr-tb;fill:#0d0d0d;fill-opacity:1;fill-rule:nonzero;stroke:none"
             transform="matrix(1,0,0,-1,0,1916)"><tspan
               id="tspan174"
               y="0"
               x="0 30.74375 59.612499">TSV</tspan></text>
</g><g
           transform="matrix(0.24,0,0,0.2399348,188.424,-238.9151)"
           id="g178"><text
             id="text182"
             style="font-variant:normal;font-weight:normal;font-size:62.5px;font-family:Calibri;-inkscape-font-specification:Calibri;writing-mode:lr-tb;fill:#0d0d0d;fill-opacity:1;fill-rule:nonzero;stroke:none"
             transform="matrix(1,0,0,-1,0,1916)"><tspan
               id="tspan180"
               y="0"
               x="0 19.525 53.237499 85.199997">(per</tspan></text>
</g><g
           transform="matrix(0.24,0,0,0.2399348,217.7144,-238.9151)"
           id="g184"><text
             id="text188"
             style="font-variant:normal;font-weight:normal;font-size:62.5px;font-family:Calibri;-inkscape-font-specification:Calibri;writing-mode:lr-tb;fill:#0d0d0d;fill-opacity:1;fill-rule:nonzero;stroke:none"
             transform="matrix(1,0,0,-1,0,1916)"><tspan
               id="tspan186"
               y="0"
               x="0 24.85 55.450001 106.4875 140.21249 154.875">sample</tspan></text>
</g><g
           transform="matrix(0.24,0,0,0.2399348,262.5553,-238.9151)"
           id="g190"><text
             id="text194"
             style="font-variant:normal;font-weight:normal;font-size:62.5px;font-family:Calibri;-inkscape-font-specification:Calibri;writing-mode:lr-tb;fill:#0d0d0d;fill-opacity:1;fill-rule:nonzero;stroke:none"
             transform="matrix(1,0,0,-1,0,1916)"><tspan
               id="tspan192"
               y="0"
               x="0">)</tspan></text>
</g><path
           id="path196"
           style="fill:#4472c4;fill-opacity:1;fill-rule:nonzero;stroke:none"
           d="m 245.0184,372.5605 10e-5,-62.6113 h -2.1302 l -10e-5,62.6113 z m 4.2605,-61.5464 -5.3255,-6.3889 -5.3255,6.3889 z" /><path
           id="path198"
           style="fill:#4472c4;fill-opacity:1;fill-rule:nonzero;stroke:none"
           d="m 245.0184,280.8387 10e-5,-8.3273 h -2.1302 l -10e-5,8.3273 z m 4.2605,-7.2625 -5.3255,-6.3889 -5.3256,6.3889 z" /><path
           id="path200"
           style="fill:#b4c7e7;fill-opacity:1;fill-rule:nonzero;stroke:none"
           d="m 351.8695,314.3712 h 95.1854 c 13.1424,0 23.7964,-9.8025 23.7964,-21.8945 0,-12.0921 -10.654,-21.8946 -23.7964,-21.8946 h -95.1854 c -13.1424,0 -23.7964,9.8025 -23.7964,21.8946 0,12.092 10.654,21.8945 23.7964,21.8945 z" /><g
           transform="matrix(6.709317e-5,0,0,-6.707495e-5,328.0731,314.3712)"
           id="g202"><path
             id="path204"
             style="fill:none;stroke:#0d0d0d;stroke-width:14908.70019531;stroke-linecap:butt;stroke-linejoin:miter;stroke-miterlimit:8;stroke-dasharray:none;stroke-opacity:1"
             d="m 1773382,652838 c -195883,0 -354677,-146142.8 -354677,-326419 C 1418705,146142.8 1577499,0 1773382,0" /></g><g
           transform="matrix(6.709317e-5,0,0,-6.707495e-5,328.0731,314.3712)"
           id="g206"><path
             id="path208"
             style="fill:none;stroke:#0d0d0d;stroke-width:14908.70019531;stroke-linecap:butt;stroke-linejoin:miter;stroke-miterlimit:8;stroke-dasharray:none;stroke-opacity:1"
             d="M 354676.3,0 H 1773382 c 195882,0 354676,146142.8 354676,326419 0,180276.2 -158794,326419 -354676,326419 H 354676.3 C 158794,652838 0,506695.2 0,326419 0,146142.8 158794,0 354676.3,0 Z" /></g><g
           transform="matrix(0.24,0,0,0.2399348,374.5548,-162.8351)"
           id="g210"><text
             id="text214"
             style="font-variant:normal;font-weight:normal;font-size:62.5px;font-family:Calibri;-inkscape-font-specification:Calibri;writing-mode:lr-tb;fill:#0d0d0d;fill-opacity:1;fill-rule:nonzero;stroke:none"
             transform="matrix(1,0,0,-1,0,1916)"><tspan
               id="tspan212"
               y="0"
               x="0 15.975 46.700001 75.987503 108.4">ITS1 </tspan></text>
</g><g
           transform="matrix(0.24,0,0,0.2399348,358.5442,-181.7951)"
           id="g216"><text
             id="text220"
             style="font-variant:normal;font-weight:normal;font-size:62.5px;font-family:Calibri;-inkscape-font-specification:Calibri;writing-mode:lr-tb;fill:#0d0d0d;fill-opacity:1;fill-rule:nonzero;stroke:none"
             transform="matrix(1,0,0,-1,0,1916)"><tspan
               id="tspan218"
               y="0"
               x="0 39.5 69.5625 90.0625 120.6875 154.4375 185.0625 209.9375">Database</tspan></text>
</g><path
           id="path222"
           style="fill:#4472c4;fill-opacity:1;fill-rule:nonzero;stroke:none"
           d="m 328.0626,291.4119 -20.5378,0.2027 0.021,2.1295 20.5379,-0.2027 z m -19.5148,-4.0668 -6.3377,5.3868 6.4429,5.2608 z" /><path
           id="path224"
           style="fill:#ffe699;fill-opacity:1;fill-rule:nonzero;stroke:none"
           d="m 177.6809,314.4792 c 50.1547,-7.7136 50.1547,7.7136 100.3041,7.7136 v 40.0969 H 177.6809 Z m 8.2638,47.8105 v 5.1983 h 99.619 v -40.3484 c -3.7867,0 -7.5787,-0.2795 -7.5787,-0.2795 v 35.4296 z m 7.7676,5.1983 v 5.0725 h 100.4821 v -40.2226 c -4.3154,0 -8.6307,-0.2096 -8.6307,-0.2096 v 35.3597 z" /><g
           transform="matrix(6.709317e-5,0,0,-6.707495e-5,177.6809,372.5605)"
           id="g226"><path
             id="path228"
             style="fill:none;stroke:#0d0d0d;stroke-width:14908.70019531;stroke-linecap:butt;stroke-linejoin:miter;stroke-miterlimit:8;stroke-dasharray:none;stroke-opacity:1"
             d="m 0,153125 h 1494997 v 597791.7 c -747458.4,0 -747458.4,230000 -1494997,115000 z m 123169.4,0 V 75625 H 1607956 v 601541.7 c -56440,0 -112959,4166.7 -112959,4166.7 M 238942.2,75625 V 0 H 1736592 v 599666.7 c -64318,0 -128636,3125 -128636,3125" /></g><g
           transform="matrix(0.24,0,0,0.2399348,209.3171,-114.5951)"
           id="g230"><text
             id="text234"
             style="font-variant:normal;font-weight:normal;font-size:62.5px;font-family:Calibri;-inkscape-font-specification:Calibri;writing-mode:lr-tb;fill:#0d0d0d;fill-opacity:1;fill-rule:nonzero;stroke:none"
             transform="matrix(1,0,0,-1,0,1916)"><tspan
               id="tspan232"
               y="0"
               x="0 25.706249 62.537498 91.368752 117.45">FASTA</tspan></text>
</g><g
           transform="matrix(0.24,0,0,0.2399348,188.424,-133.5551)"
           id="g236"><text
             id="text240"
             style="font-variant:normal;font-weight:normal;font-size:62.5px;font-family:Calibri;-inkscape-font-specification:Calibri;writing-mode:lr-tb;fill:#0d0d0d;fill-opacity:1;fill-rule:nonzero;stroke:none"
             transform="matrix(1,0,0,-1,0,1916)"><tspan
               id="tspan238"
               y="0"
               x="0 19.525 53.237499 85.199997">(per</tspan></text>
</g><g
           transform="matrix(0.24,0,0,0.2399348,217.7144,-133.5551)"
           id="g242"><text
             id="text246"
             style="font-variant:normal;font-weight:normal;font-size:62.5px;font-family:Calibri;-inkscape-font-specification:Calibri;writing-mode:lr-tb;fill:#0d0d0d;fill-opacity:1;fill-rule:nonzero;stroke:none"
             transform="matrix(1,0,0,-1,0,1916)"><tspan
               id="tspan244"
               y="0"
               x="0 24.85 55.450001 106.4875 140.21249 154.875">sample</tspan></text>
</g><g
           transform="matrix(0.24,0,0,0.2399348,262.5553,-133.5551)"
           id="g248"><text
             id="text252"
             style="font-variant:normal;font-weight:normal;font-size:62.5px;font-family:Calibri;-inkscape-font-specification:Calibri;writing-mode:lr-tb;fill:#0d0d0d;fill-opacity:1;fill-rule:nonzero;stroke:none"
             transform="matrix(1,0,0,-1,0,1916)"><tspan
               id="tspan250"
               y="0"
               x="0">)</tspan></text>
</g><path
           id="path254"
           style="fill:#4472c4;fill-opacity:1;fill-rule:nonzero;stroke:none"
           d="M 328.0731,248.9507 H 470.8513 V 225.0565 H 328.0731 Z" /><g
           transform="matrix(6.709317e-5,0,0,-6.707495e-5,328.0731,248.9507)"
           id="g256"><path
             id="path258"
             style="fill:none;stroke:#2f528f;stroke-width:14908.70019531;stroke-linecap:butt;stroke-linejoin:miter;stroke-miterlimit:8;stroke-dasharray:none;stroke-opacity:1"
             d="M 266007.2,0 V 356232 M 1862051,0 v 356232" /></g><g
           transform="matrix(6.709317e-5,0,0,-6.707495e-5,328.0731,248.9507)"
           id="g260"><path
             id="path262"
             style="fill:none;stroke:#2f528f;stroke-width:14908.70019531;stroke-linecap:butt;stroke-linejoin:miter;stroke-miterlimit:8;stroke-dasharray:none;stroke-opacity:1"
             d="M 0,0 H 2128058 V 356232 H 0 Z" /></g><g
           transform="matrix(0.24,0,0,0.2399348,367.4026,-228.5951)"
           id="g264"><text
             id="text268"
             style="font-variant:normal;font-weight:normal;font-size:62.5px;font-family:'Andale Mono';-inkscape-font-specification:AndaleMono;writing-mode:lr-tb;fill:#ffffff;fill-opacity:1;fill-rule:nonzero;stroke:none"
             transform="matrix(1,0,0,-1,0,1916)"><tspan
               id="tspan266"
               y="0"
               x="0 38.168751 76.337502 114.50625 152.675 190.84375 229.0125">summary</tspan></text>
</g><path
           id="path270"
           style="fill:#4472c4;fill-opacity:1;fill-rule:nonzero;stroke:none"
           d="m 294.1944,238.0684 28.5532,-1e-4 v -2.1296 l -28.5533,10e-5 z m 27.4881,4.2592 6.3906,-5.3241 -6.3906,-5.324 z" /><path
           id="path272"
           style="fill:#4472c4;fill-opacity:1;fill-rule:nonzero;stroke:none"
           d="M 328.0731,354.1626 H 470.8513 V 330.5378 H 328.0731 Z" /><g
           transform="matrix(6.709317e-5,0,0,-6.707495e-5,328.0731,354.1626)"
           id="g274"><path
             id="path276"
             style="fill:none;stroke:#2f528f;stroke-width:14908.70019531;stroke-linecap:butt;stroke-linejoin:miter;stroke-miterlimit:8;stroke-dasharray:none;stroke-opacity:1"
             d="M 266007.2,0 V 352215 M 1862051,0 v 352215" /></g><g
           transform="matrix(6.709317e-5,0,0,-6.707495e-5,328.0731,354.1626)"
           id="g278"><path
             id="path280"
             style="fill:none;stroke:#2f528f;stroke-width:14908.70019531;stroke-linecap:butt;stroke-linejoin:miter;stroke-miterlimit:8;stroke-dasharray:none;stroke-opacity:1"
             d="M 0,0 H 2128058 V 352215 H 0 Z" /></g><g
           transform="matrix(0.24,0,0,0.2399348,353.6627,-123.2351)"
           id="g282"><text
             id="text286"
             style="font-variant:normal;font-weight:normal;font-size:62.5px;font-family:'Andale Mono';-inkscape-font-specification:AndaleMono;writing-mode:lr-tb;fill:#ffffff;fill-opacity:1;fill-rule:nonzero;stroke:none"
             transform="matrix(1,0,0,-1,0,1916)"><tspan
               id="tspan284"
               y="0"
               x="0 38.168751 76.337502 114.50625">edit</tspan></text>
</g><g
           transform="matrix(0.24,0,0,0.2399348,390.3023,-123.2351)"
           id="g288"><text
             id="text292"
             style="font-variant:normal;font-weight:normal;font-size:62.5px;font-family:'Andale Mono';-inkscape-font-specification:AndaleMono;writing-mode:lr-tb;fill:#ffffff;fill-opacity:1;fill-rule:nonzero;stroke:none"
             transform="matrix(1,0,0,-1,0,1916)"><tspan
               id="tspan290"
               y="0"
               x="0">-</tspan></text>
</g><g
           transform="matrix(0.24,0,0,0.2399348,399.4622,-123.2351)"
           id="g294"><text
             id="text298"
             style="font-variant:normal;font-weight:normal;font-size:62.5px;font-family:'Andale Mono';-inkscape-font-specification:AndaleMono;writing-mode:lr-tb;fill:#ffffff;fill-opacity:1;fill-rule:nonzero;stroke:none"
             transform="matrix(1,0,0,-1,0,1916)"><tspan
               id="tspan296"
               y="0"
               x="0 38.168751 76.337502 114.50625 152.675">graph</tspan></text>
</g><path
           id="path300"
           style="fill:#4472c4;fill-opacity:1;fill-rule:nonzero;stroke:none"
           d="m 294.1952,343.4416 28.5532,-0.0224 -0.002,-2.1297 -28.5533,0.0225 0.002,2.1296 z m 27.4915,4.2377 6.3864,-5.3291 -6.3948,-5.3191 0.008,10.6482 z" /><path
           id="path302"
           style="fill:#4472c4;fill-opacity:1;fill-rule:nonzero;stroke:none"
           d="m 400.5273,314.3712 10e-5,10.8425 h -2.1303 v -10.8425 z m 4.2605,9.7777 -5.3255,6.3889 -5.3256,-6.3889 z" /><path
           id="path304"
           style="fill:#f8cbad;fill-opacity:1;fill-rule:nonzero;stroke:none"
           d="m 494.9508,369.5421 h 108.691 v -43.5702 c -54.3455,0 -54.3455,-16.601 -108.691,-7.1686 z" /><g
           transform="matrix(6.709317e-5,0,0,-6.707495e-5,494.9508,369.5421)"
           id="g306"><path
             id="path308"
             style="fill:none;stroke:#0d0d0d;stroke-width:14908.70019531;stroke-linecap:butt;stroke-linejoin:miter;stroke-miterlimit:8;stroke-dasharray:none;stroke-opacity:1"
             d="M 0,0 H 1620000 V 649575 C 810000,649575 810000,897075 0,756450 Z" /></g><g
           transform="matrix(0.24,0,0,0.2399348,504.6961,-107.1551)"
           id="g310"><text
             id="text314"
             style="font-variant:normal;font-weight:normal;font-size:62.5px;font-family:Calibri;-inkscape-font-specification:Calibri;writing-mode:lr-tb;fill:#0d0d0d;fill-opacity:1;fill-rule:nonzero;stroke:none"
             transform="matrix(1,0,0,-1,0,1916)"><tspan
               id="tspan312"
               y="0"
               x="0 31.262501 71.650002 126.225 180.8 207.875 222.5125 252.71249 273.60001 304.23749 338">XGMML graph</tspan></text>
</g><g
           transform="matrix(0.24,0,0,0.2399348,506.7922,-126.3551)"
           id="g316"><text
             id="text320"
             style="font-variant:normal;font-weight:normal;font-size:62.5px;font-family:Calibri;-inkscape-font-specification:Calibri;writing-mode:lr-tb;fill:#0d0d0d;fill-opacity:1;fill-rule:nonzero;stroke:none"
             transform="matrix(1,0,0,-1,0,1916)"><tspan
               id="tspan318"
               y="0"
               x="0 18.174999 51.912498 74.087502">for </tspan></text>
</g><g
           transform="matrix(0.24,0,0,0.2399348,528.09,-126.3551)"
           id="g322"><text
             id="text326"
             style="font-variant:normal;font-weight:normal;font-size:62.5px;font-family:Calibri;-inkscape-font-specification:Calibri;writing-mode:lr-tb;fill:#0d0d0d;fill-opacity:1;fill-rule:nonzero;stroke:none"
             transform="matrix(1,0,0,-1,0,1916)"><tspan
               id="tspan324"
               y="0"
               x="0 34.174999 63.349998 84.025002 117.7625 142.625 169.175 199.78751 233.52499">Cytoscape</tspan></text>
</g><path
           id="path328"
           style="fill:#f8cbad;fill-opacity:1;fill-rule:nonzero;stroke:none"
           d="m 494.9508,264.1689 h 108.691 v -43.5702 c -54.3455,0 -54.3455,-16.601 -108.691,-7.1686 z" /><g
           transform="matrix(6.709317e-5,0,0,-6.707495e-5,494.9508,264.1689)"
           id="g330"><path
             id="path332"
             style="fill:none;stroke:#0d0d0d;stroke-width:14908.70019531;stroke-linecap:butt;stroke-linejoin:miter;stroke-miterlimit:8;stroke-dasharray:none;stroke-opacity:1"
             d="M 0,0 H 1620000 V 649575 C 810000,649575 810000,897075 0,756450 Z" /></g><g
           transform="matrix(0.24,0,0,0.2399348,508.6178,-212.5151)"
           id="g334"><text
             id="text338"
             style="font-variant:normal;font-weight:normal;font-size:62.5px;font-family:Calibri;-inkscape-font-specification:Calibri;writing-mode:lr-tb;fill:#0d0d0d;fill-opacity:1;fill-rule:nonzero;stroke:none"
             transform="matrix(1,0,0,-1,0,1916)"><tspan
               id="tspan336"
               y="0"
               x="0 31.0625 64.375 88.875 104.875 119.5 150.25 179.0625 210.25 226.25 240.875 271.5 305.25 339">TXT, TSV, and </tspan></text>
</g><g
           transform="matrix(0.24,0,0,0.2399348,509.1504,-231.7151)"
           id="g340"><text
             id="text344"
             style="font-variant:normal;font-weight:normal;font-size:62.5px;font-family:Calibri;-inkscape-font-specification:Calibri;writing-mode:lr-tb;fill:#0d0d0d;fill-opacity:1;fill-rule:nonzero;stroke:none"
             transform="matrix(1,0,0,-1,0,1916)"><tspan
               id="tspan342"
               y="0"
               x="0 31.0625 57.125 84.1875 116.125 130.75 145.375 166.75 198.6875 232.4375 266.1875 288.375 309.6875">Excel reports</tspan></text>
</g><path
           id="path346"
           style="fill:#4472c4;fill-opacity:1;fill-rule:nonzero;stroke:none"
           d="m 470.8525,341.2853 18.774,0.0208 -0.002,2.1296 -18.774,-0.0207 z m 17.7136,-4.2396 6.3847,5.3311 -6.3965,5.317 z" /><path
           id="path348"
           style="fill:#4472c4;fill-opacity:1;fill-rule:nonzero;stroke:none"
           d="m 470.8513,238.0684 18.774,-1e-4 v -2.1296 l -18.774,10e-5 z m 17.7089,4.2592 6.3906,-5.3241 -6.3906,-5.324 z" /></g></g></g></svg>