<?xml version="1.0" encoding="UTF-8" standalone="no"?>
<!-- Created with Inkscape (http://www.inkscape.org/) -->

<svg
   version="1.1"
   id="svg2"
   xml:space="preserve"
   width="774.45239"
   height="616.47168"
   viewBox="0 0 774.45239 616.47168"
   sodipodi:docname="pipeline.pdf"
   xmlns:inkscape="http://www.inkscape.org/namespaces/inkscape"
   xmlns:sodipodi="http://sodipodi.sourceforge.net/DTD/sodipodi-0.dtd"
   xmlns="http://www.w3.org/2000/svg"
   xmlns:svg="http://www.w3.org/2000/svg"><defs
     id="defs6"><clipPath
       clipPathUnits="userSpaceOnUse"
       id="clipPath18"><path
         d="M 0,1.206994e-5 H 959.76 V 540.00001 H 0 Z"
         id="path16" /></clipPath></defs><sodipodi:namedview
     id="namedview4"
     pagecolor="#ffffff"
     bordercolor="#666666"
     borderopacity="1.0"
     inkscape:pageshadow="2"
     inkscape:pageopacity="0.0"
     inkscape:pagecheckerboard="0" /><g
     id="g8"
     inkscape:groupmode="layer"
     inkscape:label="pipeline"
     transform="matrix(1.3333333,0,0,-1.3333333,-219.3724,707.92787)"><g
       id="g10" /><g
       id="g12"><g
         id="g14"
         clip-path="url(#clipPath18)"><path
           d="M 0,540 H 959.76 V 1.206994e-5 H 0 Z"
           style="fill:#ffffff;fill-opacity:1;fill-rule:nonzero;stroke:none"
           id="path20" /></g></g><g
       id="g22"><path
         d="M 0,540 H 960 V 1.40816e-5 H 0 Z"
         style="fill:#ffffff;fill-opacity:1;fill-rule:nonzero;stroke:none"
         id="path24" /><path
         d="m 184.75,341.9092 c 0,15.3525 12.4456,27.798 27.798,27.798 h 111.1889 c 15.3524,0 27.798,-12.4455 27.798,-27.798 V 102.634 c 0,-15.35242 -12.4456,-27.79801 -27.798,-27.79801 H 212.548 c -15.3524,0 -27.798,12.44559 -27.798,27.79801 z"
         style="fill:#fff2cc;fill-opacity:1;fill-rule:evenodd;stroke:none"
         id="path26" /><g
         id="g28"
         transform="matrix(7.874016e-5,0,0,-7.874016e-5,184.75,369.7072)"><path
           d="M 0,353034.6 C 0,158059 158059.1,0 353034.8,0 H 1765133 c 194976,0 353035,158059 353035,353034.6 V 3391830 c 0,194976 -158059,353035 -353035,353035 H 353034.8 C 158059.1,3744865 0,3586806 0,3391830 Z"
           style="fill:none;stroke:#bf9000;stroke-width:12700;stroke-linecap:butt;stroke-linejoin:miter;stroke-miterlimit:8;stroke-dasharray:none;stroke-opacity:1"
           id="path30" /></g><g
         id="g32"
         transform="matrix(0.24,0,0,0.24,203.6274,-452.4)"><text
           transform="matrix(1,0,0,-1,0,2250)"
           style="font-variant:normal;font-weight:normal;font-size:75px;font-family:Calibri;-inkscape-font-specification:Calibri;writing-mode:lr-tb;fill:#bf9000;fill-opacity:1;fill-rule:nonzero;stroke:none"
           id="text36"><tspan
             x="0 18.75 57.674999 81.824997 119.325 145.35001 205.27499 242.77499 282.375 299.54999 334.79999 358.95001 396.45001 413.625 436.57501 453.75 470.92499 508.42499"
             y="0"
             sodipodi:role="line"
             id="tspan34">Intermediate files</tspan></text></g><path
         d="m 273.469,220.0765 v -26.137 h -2.5 v 26.137 z m 5,-24.887 -6.25,-7.5 -6.25,7.5 z"
         style="fill:#4472c4;fill-opacity:1;fill-rule:nonzero;stroke:none"
         id="path38" /><path
         d="m 568.391,259.2769 c 0,15.7635 12.7789,28.5424 28.5424,28.5424 h 114.1658 c 15.7635,0 28.5424,-12.7789 28.5424,-28.5424 V 103.3784 c 0,-15.76352 -12.7789,-28.5424 -28.5424,-28.5424 H 596.9334 c -15.7635,0 -28.5424,12.77888 -28.5424,28.5424 z"
         style="fill:#fbe5d6;fill-opacity:1;fill-rule:evenodd;stroke:none"
         id="path40" /><g
         id="g42"
         transform="matrix(7.874016e-5,0,0,-7.874016e-5,568.391,287.8193)"><path
           d="M 0,362488.7 C 0,162291.7 162291.8,0 362488.9,0 H 1812394 c 200197,0 362489,162291.7 362489,362488.7 V 2342399 c 0,200197 -162292,362489 -362489,362489 H 362488.9 C 162291.8,2704888 0,2542596 0,2342399 Z"
           style="fill:none;stroke:#c55a11;stroke-width:12700;stroke-linecap:butt;stroke-linejoin:miter;stroke-miterlimit:8;stroke-dasharray:none;stroke-opacity:1"
           id="path44" /></g><g
         id="g46"
         transform="matrix(0.24,0,0,0.24,612.2364,-452.16)"><text
           transform="matrix(1,0,0,-1,0,2250)"
           style="font-variant:normal;font-weight:normal;font-size:75px;font-family:Calibri;-inkscape-font-specification:Calibri;writing-mode:lr-tb;fill:#c55a11;fill-opacity:1;fill-rule:nonzero;stroke:none"
           id="text50"><tspan
             x="0 39.314999 76.830002 116.445 156.06 182.10001 207.09 224.28 247.17 264.35999 281.54999 319.065"
             y="0"
             sodipodi:role="line"
             id="tspan48">Report files</tspan></text></g><path
         d="m 581.0306,270.0222 h 149.5715 v -32.4001 c -74.7857,0 -74.7857,-12.3451 -149.5715,-5.3308 z"
         style="fill:#f8cbad;fill-opacity:1;fill-rule:evenodd;stroke:none"
         id="path52" /><g
         id="g54"
         transform="matrix(7.874016e-5,0,0,-7.874016e-5,581.0306,270.0222)"><path
           d="M 0,0 H 1899558 V 411481.7 C 949779,411481.7 949779,568263.8 0,479183.1 Z"
           style="fill:none;stroke:#0d0d0d;stroke-width:12700;stroke-linecap:butt;stroke-linejoin:miter;stroke-miterlimit:8;stroke-dasharray:none;stroke-opacity:1"
           id="path56" /></g><g
         id="g58"
         transform="matrix(0.24,0,0,0.24,603.1689,-290.64)"><text
           transform="matrix(1,0,0,-1,0,2250)"
           style="font-variant:normal;font-weight:normal;font-size:75px;font-family:Calibri;-inkscape-font-specification:Calibri;writing-mode:lr-tb;fill:#0d0d0d;fill-opacity:1;fill-rule:nonzero;stroke:none"
           id="text62"><tspan
             x="0 43.23 77.084999 119.79 136.995 170.55 199.755 216.96001 246.16499 285.72 323.25 355.005 372.20999 409.73999"
             y="0"
             sodipodi:role="line"
             id="tspan60">ASV vs species</tspan></text></g><path
         d="m 581.0306,214.7703 h 149.5715 v -32.4001 c -74.7857,0 -74.7857,-12.345 -149.5715,-5.3308 z"
         style="fill:#f8cbad;fill-opacity:1;fill-rule:evenodd;stroke:none"
         id="path64" /><g
         id="g66"
         transform="matrix(7.874016e-5,0,0,-7.874016e-5,581.0306,214.7703)"><path
           d="M 0,0 H 1899558 V 411481.7 C 949779,411481.7 949779,568263.8 0,479183.1 Z"
           style="fill:none;stroke:#0d0d0d;stroke-width:12700;stroke-linecap:butt;stroke-linejoin:miter;stroke-miterlimit:8;stroke-dasharray:none;stroke-opacity:1"
           id="path68" /></g><g
         id="g70"
         transform="matrix(0.24,0,0,0.24,590.6064,-345.84)"><text
           transform="matrix(1,0,0,-1,0,2250)"
           style="font-variant:normal;font-weight:normal;font-size:75px;font-family:Calibri;-inkscape-font-specification:Calibri;writing-mode:lr-tb;fill:#0d0d0d;fill-opacity:1;fill-rule:nonzero;stroke:none"
           id="text74"><tspan
             x="0 34.372501 70.32 130.1925 169.815 187.0125 224.535 241.7325 275.28 304.47751 321.67499 350.8725 390.495 428.01749 459.76501 476.96249 514.48499"
             y="0"
             sodipodi:role="line"
             id="tspan72">Sample vs species</tspan></text></g><path
         d="m 169.2,510.8674 c 0,9.3416 7.5729,16.9146 16.9146,16.9146 h 194.2122 c 9.3417,0 16.9146,-7.573 16.9146,-16.9146 v -67.6567 c 0,-9.3417 -7.5729,-16.9146 -16.9146,-16.9146 H 186.1146 c -9.3417,0 -16.9146,7.5729 -16.9146,16.9146 z"
         style="fill:#e2f0d9;fill-opacity:1;fill-rule:evenodd;stroke:none"
         id="path76" /><g
         id="g78"
         transform="matrix(7.874016e-5,0,0,-7.874016e-5,169.2,527.782)"><path
           d="M 0,214815.5 C 0,96176.19 96175.96,0 214815,0 h 2466496 c 118639,0 214815,96176.19 214815,214815.5 V 1074055 c 0,118640 -96176,214816 -214815,214816 H 214815 C 96175.96,1288871 0,1192695 0,1074055 Z"
           style="fill:none;stroke:#548235;stroke-width:12700;stroke-linecap:butt;stroke-linejoin:miter;stroke-miterlimit:8;stroke-dasharray:none;stroke-opacity:1"
           id="path80" /></g><g
         id="g82"
         transform="matrix(0.24,0,0,0.24,246.8399,-34.07999)"><text
           transform="matrix(1,0,0,-1,0,2250)"
           style="font-variant:normal;font-weight:normal;font-size:75px;font-family:Calibri;-inkscape-font-specification:Calibri;writing-mode:lr-tb;fill:#548235;fill-opacity:1;fill-rule:nonzero;stroke:none"
           id="text86"><tspan
             x="0 18.75 58.349998 97.949997 137.55 162.52499 179.7 202.64999 219.825 237 274.5"
             y="0"
             sodipodi:role="line"
             id="tspan84">Input files</tspan></text></g><path
         d="m 179.6181,432.9817 c 41.8614,-9.0551 41.8614,9.0551 83.7182,9.0551 v 47.0702 h -83.7182 z m 6.8974,56.1253 v 6.1024 h 83.1464 v -47.3655 c -3.1605,0 -6.3256,-0.3281 -6.3256,-0.3281 v 41.5912 z m 6.4831,6.1024 v 5.9547 h 83.8668 v -47.2178 c -3.6017,0 -7.2035,-0.2461 -7.2035,-0.2461 v 41.5092 z"
         style="fill:#c5e0b4;fill-opacity:1;fill-rule:evenodd;stroke:none"
         id="path88" /><g
         id="g90"
         transform="matrix(7.874016e-5,0,0,-7.874016e-5,179.6181,501.1641)"><path
           d="m 0,153125 h 1063222 v 597791.7 c -531582.6,0 -531582.6,230000 -1063222,115000 z m 87596.43,0 V 75625 H 1143556 v 601541.7 c -40138,0 -80334,4166.7 -80334,4166.7 M 169932.5,75625 V 0 H 1235041 v 599666.7 c -45742,0 -91485,3125 -91485,3125"
           style="fill:none;stroke:#385723;stroke-width:12700;stroke-linecap:butt;stroke-linejoin:miter;stroke-miterlimit:8;stroke-dasharray:none;stroke-opacity:1"
           id="path92" /></g><g
         id="g94"
         transform="matrix(0.24,0,0,0.24,198.4222,-71.51999)"><text
           transform="matrix(1,0,0,-1,0,2250)"
           style="font-variant:normal;font-weight:normal;font-size:75px;font-family:Calibri;-inkscape-font-specification:Calibri;writing-mode:lr-tb;fill:#0d0d0d;fill-opacity:1;fill-rule:nonzero;stroke:none"
           id="text98"><tspan
             x="0 30.165001 73.379997 107.22 141.58501"
             y="0"
             sodipodi:role="line"
             id="tspan96">FASTQ</tspan></text></g><g
         id="g100"
         transform="matrix(0.24,0,0,0.24,187.0922,-92.39999)"><text
           transform="matrix(1,0,0,-1,0,2250)"
           style="font-variant:normal;font-weight:normal;font-size:75px;font-family:Calibri;-inkscape-font-specification:Calibri;writing-mode:lr-tb;fill:#0d0d0d;fill-opacity:1;fill-rule:nonzero;stroke:none"
           id="text104"><tspan
             x="0 22.92 44.264999 83.834999 110.28 163.125 199.095 224.11501 263.685"
             y="0"
             sodipodi:role="line"
             id="tspan102">(forward)</tspan></text></g><path
         d="m 287.9505,432.9817 c 41.8532,-9.0551 41.8532,9.0551 83.7018,9.0551 v 47.0702 h -83.7018 z m 6.896,56.1253 v 6.1024 h 83.1302 v -47.3655 c -3.1599,0 -6.3244,-0.3281 -6.3244,-0.3281 v 41.5912 z m 6.4819,6.1024 v 5.9547 h 83.8504 v -47.2178 c -3.6011,0 -7.2021,-0.2461 -7.2021,-0.2461 v 41.5092 z"
         style="fill:#c5e0b4;fill-opacity:1;fill-rule:evenodd;stroke:none"
         id="path106" /><g
         id="g108"
         transform="matrix(7.874016e-5,0,0,-7.874016e-5,287.9505,501.1641)"><path
           d="m 0,153125 h 1063014 v 597791.7 c -531478.3,0 -531478.3,230000 -1063014,115000 z m 87579.33,0 V 75625 H 1143333 v 601541.7 c -40131,0 -80319,4166.7 -80319,4166.7 M 169899.3,75625 V 0 H 1234800 v 599666.7 c -45733,0 -91467,3125 -91467,3125"
           style="fill:none;stroke:#385723;stroke-width:12700;stroke-linecap:butt;stroke-linejoin:miter;stroke-miterlimit:8;stroke-dasharray:none;stroke-opacity:1"
           id="path110" /></g><g
         id="g112"
         transform="matrix(0.24,0,0,0.24,306.7489,-71.51999)"><text
           transform="matrix(1,0,0,-1,0,2250)"
           style="font-variant:normal;font-weight:normal;font-size:75px;font-family:Calibri;-inkscape-font-specification:Calibri;writing-mode:lr-tb;fill:#0d0d0d;fill-opacity:1;fill-rule:nonzero;stroke:none"
           id="text116"><tspan
             x="0 30.165001 73.379997 107.22 141.58501"
             y="0"
             sodipodi:role="line"
             id="tspan114">FASTQ</tspan></text></g><g
         id="g118"
         transform="matrix(0.24,0,0,0.24,297.3939,-92.39999)"><text
           transform="matrix(1,0,0,-1,0,2250)"
           style="font-variant:normal;font-weight:normal;font-size:75px;font-family:Calibri;-inkscape-font-specification:Calibri;writing-mode:lr-tb;fill:#0d0d0d;fill-opacity:1;fill-rule:nonzero;stroke:none"
           id="text122"><tspan
             x="0 22.92 48.014999 85.110001 118.23 155.7 180.42 209.565 247.035"
             y="0"
             sodipodi:role="line"
             id="tspan120">(reverse)</tspan></text></g><path
         d="M 203.8493,402.5709 H 340.5887 V 374.8374 H 203.8493 Z"
         style="fill:#4472c4;fill-opacity:1;fill-rule:nonzero;stroke:none"
         id="path124" /><g
         id="g126"
         transform="matrix(7.874016e-5,0,0,-7.874016e-5,203.8493,402.5709)"><path
           d="M 217073.9,0 V 352215 M 1519517,0 v 352215"
           style="fill:none;stroke:#2f528f;stroke-width:12700;stroke-linecap:butt;stroke-linejoin:miter;stroke-miterlimit:8;stroke-dasharray:none;stroke-opacity:1"
           id="path128" /></g><g
         id="g130"
         transform="matrix(7.874016e-5,0,0,-7.874016e-5,203.8493,402.5709)"><path
           d="M 0,0 H 1736591 V 352215 H 0 Z"
           style="fill:none;stroke:#2f528f;stroke-width:12700;stroke-linecap:butt;stroke-linejoin:miter;stroke-miterlimit:8;stroke-dasharray:none;stroke-opacity:1"
           id="path132" /></g><g
         id="g134"
         transform="matrix(0.24,0,0,0.24,234.594,-157.44)"><text
           transform="matrix(1,0,0,-1,0,2250)"
           style="font-variant:normal;font-weight:normal;font-size:75px;font-family:'Andale Mono';-inkscape-font-specification:AndaleMono;writing-mode:lr-tb;fill:#ffffff;fill-opacity:1;fill-rule:nonzero;stroke:none"
           id="text138"><tspan
             x="0 44.790001 89.580002 134.37 179.16 223.95 268.73999"
             y="0"
             sodipodi:role="line"
             id="tspan136">prepare</tspan></text></g><path
         d="m 331.0538,432.9817 v -16.4554 h -58.8347 l 1.25,1.25 v -8.9554 h -2.5 v 10.2054 h 58.8347 l -1.25,-1.25 v 15.2054 z m -52.5847,-22.9108 -6.25,-7.5 -6.25,7.5 z"
         style="fill:#4472c4;fill-opacity:1;fill-rule:nonzero;stroke:none"
         id="path140" /><path
         d="m 220.2294,432.9817 v -16.4554 h 51.9897 l -1.25,1.25 v -8.9554 h 2.5 v 10.2054 h -51.9897 l 1.25,-1.25 v 15.2054 z m 45.7397,-22.9108 6.25,-7.5 6.25,7.5 z"
         style="fill:#4472c4;fill-opacity:1;fill-rule:nonzero;stroke:none"
         id="path142" /><path
         d="m 273.4691,374.8374 v -11.0598 h -2.5 v 11.0598 z m 5,-9.8098 -6.25,-7.5 -6.25,7.4999 z"
         style="fill:#4472c4;fill-opacity:1;fill-rule:nonzero;stroke:none"
         id="path144" /><path
         d="m 273.4691,357.5276 v -75.1553 h -2.5 v 75.1553 z m 5,-73.9053 -6.25,-7.5 -6.25,7.5 z"
         style="fill:#4472c4;fill-opacity:1;fill-rule:nonzero;stroke:none"
         id="path146" /><path
         d="m 273.469,263.282 v -20.0452 h -2.5 v 20.0452 z m 5,-18.7952 -6.25,-7.5 -6.25,7.5 z"
         style="fill:#4472c4;fill-opacity:1;fill-rule:nonzero;stroke:none"
         id="path148" /><path
         d="m 194.4421,289.3452 c 58.8613,-9.0552 58.8613,9.0551 117.7163,9.0551 v 47.0702 H 194.4421 Z m 9.6984,56.1253 v 6.1023 h 116.9123 v -47.3654 c -4.444,0 -8.8944,-0.3281 -8.8944,-0.3281 v 41.5912 z m 9.116,6.1023 v 5.9548 h 117.9252 v -47.2179 c -5.0645,0 -10.1289,-0.246 -10.1289,-0.246 v 41.5091 z"
         style="fill:#ffe699;fill-opacity:1;fill-rule:evenodd;stroke:none"
         id="path150" /><g
         id="g152"
         transform="matrix(7.874016e-5,0,0,-7.874016e-5,194.4421,357.5276)"><path
           d="m 0,153125 h 1494997 v 597791.7 c -747458.4,0 -747458.4,230000 -1494997,115000 z m 123169.4,0 V 75625 H 1607956 v 601541.7 c -56440,0 -112959,4166.7 -112959,4166.7 M 238942.2,75625 V 0 H 1736592 v 599666.7 c -64318,0 -128636,3125 -128636,3125"
           style="fill:none;stroke:#0d0d0d;stroke-width:12700;stroke-linecap:butt;stroke-linejoin:miter;stroke-miterlimit:8;stroke-dasharray:none;stroke-opacity:1"
           id="path154" /></g><g
         id="g156"
         transform="matrix(0.24,0,0,0.24,231.5702,-215.04)"><text
           transform="matrix(1,0,0,-1,0,2250)"
           style="font-variant:normal;font-weight:normal;font-size:75px;font-family:Calibri;-inkscape-font-specification:Calibri;writing-mode:lr-tb;fill:#0d0d0d;fill-opacity:1;fill-rule:nonzero;stroke:none"
           id="text160"><tspan
             x="0 30.165001 73.379997 107.22 137.83501"
             y="0"
             sodipodi:role="line"
             id="tspan158">FASTA</tspan></text></g><g
         id="g162"
         transform="matrix(0.24,0,0,0.24,207.0502,-236.16)"><text
           transform="matrix(1,0,0,-1,0,2250)"
           style="font-variant:normal;font-weight:normal;font-size:75px;font-family:Calibri;-inkscape-font-specification:Calibri;writing-mode:lr-tb;fill:#0d0d0d;fill-opacity:1;fill-rule:nonzero;stroke:none"
           id="text166"><tspan
             x="0 22.92 62.490002 99.959999 126.03 143.25 172.395 208.36501 268.26001 307.82999 325.04999 362.51999"
             y="0"
             sodipodi:role="line"
             id="tspan164">(per sample)</tspan></text></g><path
         d="M 374.3376,208.1087 H 545.5882 V 180.0589 H 374.3376 Z"
         style="fill:#4472c4;fill-opacity:1;fill-rule:nonzero;stroke:none"
         id="path168" /><g
         id="g170"
         transform="matrix(7.874016e-5,0,0,-7.874016e-5,374.3376,208.1087)"><path
           d="M 271860.3,0 V 356232 M 1903022,0 v 356232"
           style="fill:none;stroke:#2f528f;stroke-width:12700;stroke-linecap:butt;stroke-linejoin:miter;stroke-miterlimit:8;stroke-dasharray:none;stroke-opacity:1"
           id="path172" /></g><g
         id="g174"
         transform="matrix(7.874016e-5,0,0,-7.874016e-5,374.3376,208.1087)"><path
           d="M 0,0 H 2174882 V 356232 H 0 Z"
           style="fill:none;stroke:#2f528f;stroke-width:12700;stroke-linecap:butt;stroke-linejoin:miter;stroke-miterlimit:8;stroke-dasharray:none;stroke-opacity:1"
           id="path176" /></g><g
         id="g178"
         transform="matrix(0.24,0,0,0.24,422.3379,-352.08)"><text
           transform="matrix(1,0,0,-1,0,2250)"
           style="font-variant:normal;font-weight:normal;font-size:75px;font-family:'Andale Mono';-inkscape-font-specification:AndaleMono;writing-mode:lr-tb;fill:#ffffff;fill-opacity:1;fill-rule:nonzero;stroke:none"
           id="text182"><tspan
             x="0 44.790001 89.580002 134.37 179.16 223.95 268.73999"
             y="0"
             sodipodi:role="line"
             id="tspan180">summary</tspan></text></g><path
         d="m 327.8748,124.0419 41.129,0.1304 -0.008,2.4999 -41.129,-0.1303 z m 39.8949,-4.8736 7.4801,6.2738 -7.5197,6.2262 z"
         style="fill:#4472c4;fill-opacity:1;fill-rule:nonzero;stroke:none"
         id="path184" /><path
         d="m 545.6053,192.8339 29.193,0.3999 -0.0342,2.4998 -29.193,-0.3999 z m 28.0116,-4.6168 7.4137,6.3522 -7.5849,6.1467 z"
         style="fill:#4472c4;fill-opacity:1;fill-rule:nonzero;stroke:none"
         id="path186" /><path
         d="m 200.3119,236.9868 h 127.559 V 208.106 c -63.7795,0 -63.7795,-11.0041 -127.559,-4.7518 z"
         style="fill:#ffe699;fill-opacity:1;fill-rule:evenodd;stroke:none"
         id="path188" /><g
         id="g190"
         transform="matrix(7.874016e-5,0,0,-7.874016e-5,200.3119,236.9868)"><path
           d="M 0,0 H 1620000 V 366786.1 C 810000,366786.1 810000,506538.4 0,427133.7 Z"
           style="fill:none;stroke:#0d0d0d;stroke-width:12700;stroke-linecap:butt;stroke-linejoin:miter;stroke-miterlimit:8;stroke-dasharray:none;stroke-opacity:1"
           id="path192" /></g><g
         id="g194"
         transform="matrix(0.24,0,0,0.24,220.5414,-323.52)"><text
           transform="matrix(1,0,0,-1,0,2250)"
           style="font-variant:normal;font-weight:normal;font-size:75px;font-family:Calibri;-inkscape-font-specification:Calibri;writing-mode:lr-tb;fill:#0d0d0d;fill-opacity:1;fill-rule:nonzero;stroke:none"
           id="text198"><tspan
             x="0 43.23 77.084999 115.89 143.595 172.8 208.755 268.63501 308.19 325.39499"
             y="0"
             sodipodi:role="line"
             id="tspan196">ASV/sample</tspan></text></g><path
         d="m 545.5882,192.8338 h 14.4711 v 56.9874 l -1.25,-1.25 h 15.9713 v 2.5 h -17.2213 v -56.9874 l 1.25,1.25 h -13.2211 z m 27.9424,50.7374 7.5,6.25 -7.5,6.25 z"
         style="fill:#4472c4;fill-opacity:1;fill-rule:nonzero;stroke:none"
         id="path200" /><path
         d="M 203.8492,187.6895 H 340.5887 V 159.7663 H 203.8492 Z"
         style="fill:#4472c4;fill-opacity:1;fill-rule:nonzero;stroke:none"
         id="path202" /><g
         id="g204"
         transform="matrix(7.874016e-5,0,0,-7.874016e-5,203.8492,187.6895)"><path
           d="M 217074,0 V 354625 M 1519518,0 v 354625"
           style="fill:none;stroke:#2f528f;stroke-width:12700;stroke-linecap:butt;stroke-linejoin:miter;stroke-miterlimit:8;stroke-dasharray:none;stroke-opacity:1"
           id="path206" /></g><g
         id="g208"
         transform="matrix(7.874016e-5,0,0,-7.874016e-5,203.8492,187.6895)"><path
           d="M 0,0 H 1736592 V 354625 H 0 Z"
           style="fill:none;stroke:#2f528f;stroke-width:12700;stroke-linecap:butt;stroke-linejoin:miter;stroke-miterlimit:8;stroke-dasharray:none;stroke-opacity:1"
           id="path210" /></g><g
         id="g212"
         transform="matrix(0.24,0,0,0.24,229.219,-372.48)"><text
           transform="matrix(1,0,0,-1,0,2250)"
           style="font-variant:normal;font-weight:normal;font-size:75px;font-family:'Andale Mono';-inkscape-font-specification:AndaleMono;writing-mode:lr-tb;fill:#ffffff;fill-opacity:1;fill-rule:nonzero;stroke:none"
           id="text216"><tspan
             x="0 44.790001 89.580002 134.37 179.16 223.95 268.73999 313.53"
             y="0"
             sodipodi:role="line"
             id="tspan214">classify</tspan></text></g><path
         d="m 273.469,168.7663 v -20.0452 h -2.5 v 20.0452 z m 5,-18.7952 -6.25,-7.5 -6.25,7.5 z"
         style="fill:#4472c4;fill-opacity:1;fill-rule:nonzero;stroke:none"
         id="path218" /><path
         d="m 200.3118,143.2987 h 127.5591 v -28.8808 c -63.7796,0 -63.7796,-11.0041 -127.5591,-4.7518 z"
         style="fill:#ffe699;fill-opacity:1;fill-rule:evenodd;stroke:none"
         id="path220" /><g
         id="g222"
         transform="matrix(7.874016e-5,0,0,-7.874016e-5,200.3118,143.2987)"><path
           d="M 0,0 H 1620000 V 366786.1 C 810000,366786.1 810000,506538.4 0,427133.7 Z"
           style="fill:none;stroke:#0d0d0d;stroke-width:12700;stroke-linecap:butt;stroke-linejoin:miter;stroke-miterlimit:8;stroke-dasharray:none;stroke-opacity:1"
           id="path224" /></g><g
         id="g226"
         transform="matrix(0.24,0,0,0.24,210.2363,-417.36)"><text
           transform="matrix(1,0,0,-1,0,2250)"
           style="font-variant:normal;font-weight:normal;font-size:75px;font-family:Calibri;-inkscape-font-specification:Calibri;writing-mode:lr-tb;fill:#0d0d0d;fill-opacity:1;fill-rule:nonzero;stroke:none"
           id="text230"><tspan
             x="0 40.102501 57.255001 93.157501 122.31 151.46249 168.61501 191.5425 208.69501 246.1725 285.75 302.97751 346.23001 380.10751 419.535"
             y="0"
             sodipodi:role="line"
             id="tspan228">Classified ASVs</tspan></text></g><path
         d="M 203.8493,276.1223 H 340.5888 V 248.1991 H 203.8493 Z"
         style="fill:#4472c4;fill-opacity:1;fill-rule:nonzero;stroke:none"
         id="path232" /><g
         id="g234"
         transform="matrix(7.874016e-5,0,0,-7.874016e-5,203.8493,276.1223)"><path
           d="M 217074,0 V 354625 M 1519518,0 v 354625"
           style="fill:none;stroke:#2f528f;stroke-width:12700;stroke-linecap:butt;stroke-linejoin:miter;stroke-miterlimit:8;stroke-dasharray:none;stroke-opacity:1"
           id="path236" /></g><g
         id="g238"
         transform="matrix(7.874016e-5,0,0,-7.874016e-5,203.8493,276.1223)"><path
           d="M 0,0 H 1736592 V 354625 H 0 Z"
           style="fill:none;stroke:#2f528f;stroke-width:12700;stroke-linecap:butt;stroke-linejoin:miter;stroke-miterlimit:8;stroke-dasharray:none;stroke-opacity:1"
           id="path240" /></g><g
         id="g242"
         transform="matrix(0.24,0,0,0.24,245.344,-283.92)"><text
           transform="matrix(1,0,0,-1,0,2250)"
           style="font-variant:normal;font-weight:normal;font-size:75px;font-family:'Andale Mono';-inkscape-font-specification:AndaleMono;writing-mode:lr-tb;fill:#ffffff;fill-opacity:1;fill-rule:nonzero;stroke:none"
           id="text246"><tspan
             x="0 44.790001 89.580002 134.37 179.16"
             y="0"
             sodipodi:role="line"
             id="tspan244">tally</tspan></text></g><path
         d="m 580.1427,145.6514 h 149.5715 v -32.4001 c -74.7857,0 -74.7857,-12.3451 -149.5715,-5.3308 z"
         style="fill:#f8cbad;fill-opacity:1;fill-rule:evenodd;stroke:none"
         id="path248" /><g
         id="g250"
         transform="matrix(7.874016e-5,0,0,-7.874016e-5,580.1427,145.6514)"><path
           d="M 0,0 H 1899558 V 411481.7 C 949779,411481.7 949779,568263.8 0,479183.1 Z"
           style="fill:none;stroke:#0d0d0d;stroke-width:12700;stroke-linecap:butt;stroke-linejoin:miter;stroke-miterlimit:8;stroke-dasharray:none;stroke-opacity:1"
           id="path252" /></g><g
         id="g254"
         transform="matrix(0.24,0,0,0.24,593.0434,-414.96)"><text
           transform="matrix(1,0,0,-1,0,2250)"
           style="font-variant:normal;font-weight:normal;font-size:75px;font-family:Calibri;-inkscape-font-specification:Calibri;writing-mode:lr-tb;fill:#0d0d0d;fill-opacity:1;fill-rule:nonzero;stroke:none"
           id="text258"><tspan
             x="0 40.102501 74.355003 98.6325 138.21001 167.3625 198.53999 234.4425 274.01999"
             y="0"
             sodipodi:role="line"
             id="tspan256">Cytoscape</tspan></text></g><g
         id="g260"
         transform="matrix(0.24,0,0,0.24,671.9334,-414.96)"><text
           transform="matrix(1,0,0,-1,0,2250)"
           style="font-variant:normal;font-weight:normal;font-size:75px;font-family:Calibri;-inkscape-font-specification:Calibri;writing-mode:lr-tb;fill:#0d0d0d;fill-opacity:1;fill-rule:nonzero;stroke:none"
           id="text264"><tspan
             x="0 47.392502 71.910004 107.8275 147.42"
             y="0"
             sodipodi:role="line"
             id="tspan262">Graph</tspan></text></g><path
         d="M 375.2498,139.4669 H 546.5004 V 111.4172 H 375.2498 Z"
         style="fill:#4472c4;fill-opacity:1;fill-rule:nonzero;stroke:none"
         id="path266" /><g
         id="g268"
         transform="matrix(7.874016e-5,0,0,-7.874016e-5,375.2498,139.4669)"><path
           d="M 271860.3,0 V 356232 M 1903022,0 v 356232"
           style="fill:none;stroke:#2f528f;stroke-width:12700;stroke-linecap:butt;stroke-linejoin:miter;stroke-miterlimit:8;stroke-dasharray:none;stroke-opacity:1"
           id="path270" /></g><g
         id="g272"
         transform="matrix(7.874016e-5,0,0,-7.874016e-5,375.2498,139.4669)"><path
           d="M 0,0 H 2174882 V 356232 H 0 Z"
           style="fill:none;stroke:#2f528f;stroke-width:12700;stroke-linecap:butt;stroke-linejoin:miter;stroke-miterlimit:8;stroke-dasharray:none;stroke-opacity:1"
           id="path274" /></g><g
         id="g276"
         transform="matrix(0.24,0,0,0.24,407.1251,-420.72)"><text
           transform="matrix(1,0,0,-1,0,2250)"
           style="font-variant:normal;font-weight:normal;font-size:75px;font-family:'Andale Mono';-inkscape-font-specification:AndaleMono;writing-mode:lr-tb;fill:#ffffff;fill-opacity:1;fill-rule:nonzero;stroke:none"
           id="text280"><tspan
             x="0 44.790001 89.580002 134.37"
             y="0"
             sodipodi:role="line"
             id="tspan278">edit</tspan></text></g><g
         id="g282"
         transform="matrix(0.24,0,0,0.24,450.1251,-420.72)"><text
           transform="matrix(1,0,0,-1,0,2250)"
           style="font-variant:normal;font-weight:normal;font-size:75px;font-family:'Andale Mono';-inkscape-font-specification:AndaleMono;writing-mode:lr-tb;fill:#ffffff;fill-opacity:1;fill-rule:nonzero;stroke:none"
           id="text286"><tspan
             x="0"
             y="0"
             id="tspan284">-</tspan></text></g><g
         id="g288"
         transform="matrix(0.24,0,0,0.24,460.8751,-420.72)"><text
           transform="matrix(1,0,0,-1,0,2250)"
           style="font-variant:normal;font-weight:normal;font-size:75px;font-family:'Andale Mono';-inkscape-font-specification:AndaleMono;writing-mode:lr-tb;fill:#ffffff;fill-opacity:1;fill-rule:nonzero;stroke:none"
           id="text292"><tspan
             x="0 44.790001 89.580002 134.37 179.16"
             y="0"
             sodipodi:role="line"
             id="tspan290">graph</tspan></text></g><path
         d="m 546.5007,124.1921 27.3924,0.007 -7e-4,2.5 -27.3923,-0.007 z m 26.1436,-4.9936 7.4984,6.2519 -7.5015,6.2481 0.003,-12.5 z"
         style="fill:#4472c4;fill-opacity:1;fill-rule:nonzero;stroke:none"
         id="path294" /><path
         d="m 327.8709,124.0419 h 33.4835 v 70.0419 l -1.25,-1.25 h 7.9832 v 2.5 h -9.2332 v -70.0419 l 1.25,1.25 h -32.2335 z m 38.9667,63.7919 7.5,6.25 -7.5,6.25 z"
         style="fill:#4472c4;fill-opacity:1;fill-rule:nonzero;stroke:none"
         id="path296" /></g></g></svg>
